<?xml version="1.0" encoding="UTF-8" standalone="no"?>
<!-- Created with Inkscape (http://www.inkscape.org/) -->

<svg
   xmlns:dc="http://purl.org/dc/elements/1.1/"
   xmlns:cc="http://creativecommons.org/ns#"
   xmlns:rdf="http://www.w3.org/1999/02/22-rdf-syntax-ns#"
   xmlns:svg="http://www.w3.org/2000/svg"
   xmlns="http://www.w3.org/2000/svg"
   xmlns:sodipodi="http://sodipodi.sourceforge.net/DTD/sodipodi-0.dtd"
   xmlns:inkscape="http://www.inkscape.org/namespaces/inkscape"
   version="1.1"
   inkscape:output_extension="org.inkscape.output.svg.inkscape"
   sodipodi:docname="explore.svg"
   inkscape:version="0.48.2 r9819"
   sodipodi:version="0.32"
   id="svg12385"
   height="100%"
   width="100%"
   viewBox="0 0 250 300">
  <sodipodi:namedview
     id="base"
     pagecolor="#ffffff"
     bordercolor="#666666"
     borderopacity="1.0"
     gridtolerance="10000"
     guidetolerance="10"
     objecttolerance="10"
     inkscape:pageopacity="0.0"
     inkscape:pageshadow="2"
     inkscape:zoom="1.4"
     inkscape:cx="10.414351"
     inkscape:cy="61.585085"
     inkscape:document-units="px"
     inkscape:current-layer="layer3"
     showgrid="false"
     inkscape:window-width="1440"
     inkscape:window-height="838"
     inkscape:window-x="-8"
     inkscape:window-y="-8"
     inkscape:window-maximized="1"
     fit-margin-top="0"
     fit-margin-left="0"
     fit-margin-right="0"
     fit-margin-bottom="0" />
  <defs
     id="defs12387">
    <inkscape:perspective
       id="perspective12393"
       inkscape:persp3d-origin="372.04724 : 350.78739 : 1"
       inkscape:vp_z="744.09448 : 526.18109 : 1"
       inkscape:vp_y="0 : 1000 : 0"
       inkscape:vp_x="0 : 526.18109 : 1"
       sodipodi:type="inkscape:persp3d" />
  </defs>
  <metadata
     id="metadata12390">
    <rdf:RDF>
      <cc:Work
         rdf:about="">
        <dc:format>image/svg+xml</dc:format>
        <dc:type
           rdf:resource="http://purl.org/dc/dcmitype/StillImage" />
        <dc:title>Other map symbols</dc:title>
        <dc:creator>
          <cc:Agent>
            <dc:title>Mohamed Ibrahim</dc:title>
          </cc:Agent>
        </dc:creator>
        <dc:rights>
          <cc:Agent>
            <dc:title>Public Domain</dc:title>
          </cc:Agent>
        </dc:rights>
        <dc:publisher>
          <cc:Agent>
            <dc:title>clker.com</dc:title>
          </cc:Agent>
        </dc:publisher>
        <dc:subject>
          <rdf:Bag>
            <rdf:li>other map symbols</rdf:li>
          </rdf:Bag>
        </dc:subject>
        <cc:license
           rdf:resource="http://creativecommons.org/licenses/publicdomain/" />
      </cc:Work>
      <cc:License
         rdf:about="http://creativecommons.org/licenses/publicdomain/">
        <cc:permits
           rdf:resource="http://creativecommons.org/ns#Reproduction" />
        <cc:permits
           rdf:resource="http://creativecommons.org/ns#Distribution" />
        <cc:permits
           rdf:resource="http://creativecommons.org/ns#DerivativeWorks" />
      </cc:License>
    </rdf:RDF>
  </metadata>
  <g
     id="layer1"
     inkscape:groupmode="layer"
     inkscape:label="Layer 1"
     transform="translate(0,-752.36218)" />
  <g
     inkscape:label="Bottom"
     id="layer3"
     inkscape:groupmode="layer"
     transform="translate(0,-752.36218)">
    <g
       id="g4828"
       transform="matrix(1,0,0,1.1999999,0,790.76219)">
      <path
         inkscape:connector-curvature="0"
         d="M 220.14796,218 C 236.59186,218 250,204.61843 250,188.10017 L 250,-2.1510431 C 250,-18.669014 236.59186,-32.000014 220.14796,-32.000014 l -190.29569,0 C 13.33233,-32.000014 0,-18.669014 0,-2.1510431 L 0,188.10017 C 0,204.61843 13.33233,218 29.85227,218 l 190.29569,0 z"
         style="fill:#59e817;fill-opacity:1;fill-rule:nonzero;stroke:none;display:inline"
         id="path4010-7" />
      <path
         id="path4826"
         style="fill:#59e817;fill-opacity:1;fill-rule:nonzero;stroke:#ffffff;stroke-width:9.03846169;stroke-miterlimit:4;stroke-opacity:1;stroke-dasharray:none;display:inline"
         d="m 210.99912,205.98077 c 14.86275,0 26.98165,-12.09487 26.98165,-27.02483 l 0,-171.9578231 c 0,-14.9297027 -12.1189,-26.9788769 -26.98165,-26.9788769 l -171.998027,0 c -14.931487,0 -26.981862,12.0491742 -26.981862,26.9788769 l 0,171.9578231 c 0,14.92996 12.050375,27.02483 26.981862,27.02483 l 171.998027,0 z"
         inkscape:connector-curvature="0" />
    </g>
    <text
       transform="scale(0.93323183,1.0715451)"
       sodipodi:linespacing="125%"
       id="text3881"
       y="761.9082"
       x="90.350098"
       style="font-size:38.4817276px;font-style:normal;font-variant:normal;font-weight:bold;font-stretch:normal;text-align:start;line-height:125%;letter-spacing:0px;word-spacing:0px;writing-mode:lr-tb;text-anchor:start;fill:#ffffff;fill-opacity:1;stroke:none;font-family:Raavi;-inkscape-font-specification:Raavi Bold"
       xml:space="preserve"><tspan
         sodipodi:role="line"
         id="tspan3002"
         x="90.350098"
         y="761.9082">Walk</tspan></text>
  </g>
  <g
     inkscape:label="Top"
     id="layer4"
     inkscape:groupmode="layer"
     transform="translate(0,-752.36218)">
    <path
       inkscape:connector-curvature="0"
       id="path4012"
       style="fill:#ffffff;fill-opacity:1;fill-rule:nonzero;stroke:none"
       d="m 152.25928,859.09883 c 0,8.67303 -5.84681,15.6918 -13.03228,15.6918 -4.40971,0 -8.34695,-2.67043 -10.6896,-6.68792 l 4.11441,0 c 2.73638,0 5.11841,-1.93783 6.24052,-4.70281 l 1.75208,-4.58466 c 0.11811,-0.25994 0.35435,-0.49628 0.66933,-0.49628 l 10.94554,0 0,0.77987 z" />
    <path
       inkscape:connector-curvature="0"
       id="path4014"
       style="fill:#ffffff;fill-opacity:1;fill-rule:nonzero;stroke:none"
       d="m 154.75942,854.30149 c -1.77176,-8.31855 -8.07134,-14.4393 -15.53242,-14.4393 -8.87847,0 -16.02457,8.62577 -16.02457,19.23664 0,1.74878 0.17718,3.47393 0.53153,5.03367 l 8.91785,0 c 1.41741,0 2.69701,-1.01619 3.26791,-2.43412 l 1.73239,-4.58466 c 0.61027,-1.65426 2.04736,-2.81223 3.66163,-2.81223 l 13.44568,0 z" />
    <path
       inkscape:connector-curvature="0"
       id="path4016"
       style="fill:#ffffff;fill-opacity:1;fill-rule:nonzero;stroke:none"
       d="m 108.59528,868.24451 c 1.61427,-1.58336 1.83082,-4.3956 0.53152,-6.28618 l -7.04767,-10.37454 c -1.29928,-1.93786 -3.64193,-2.22143 -5.21683,-0.66171 l -30.100215,29.37486 c -1.574895,1.55973 -1.830815,4.37196 -0.531522,6.30981 l 7.047647,10.39817 c 1.299305,1.89059 3.64196,2.15054 5.25623,0.63809 l 30.06084,-29.3985 z" />
    <path
       inkscape:connector-curvature="0"
       id="path4018"
       style="fill:#ffffff;fill-opacity:1;fill-rule:nonzero;stroke:none"
       d="m 78.88878,909.78997 c -1.693008,1.55972 -3.14979,3.54483 -4.27189,5.90805 -1.08276,2.24507 -1.732395,4.65555 -2.047372,7.04241 l -8.563508,44.35774 -23.643131,27.3425 c -0.669329,0.7326 -1.240225,1.5597 -1.653645,2.5286 -2.500144,5.22273 -1.003999,11.86343 3.386028,14.86473 3.484472,2.4104 7.795737,1.6541 10.610869,-1.4416 l 26.300774,-30.50923 c 0.374045,-0.5435 0.728385,-1.1343 1.02368,-1.796 0.393715,-0.8272 0.68901,-1.6543 0.885885,-2.5287 l 5.35465,-28.12235 17.57977,21.05635 -0.0393,35.49563 c 0,3.7811 1.65365,7.4205 4.58689,9.4529 4.33097,2.9539 9.88248,1.1579 12.38262,-4.0411 0.84651,-1.9142 1.22054,-3.8994 1.1418,-5.8845 l 0.0393,-39.44223 c 0.0788,-2.8358 -0.76777,-5.6008 -2.38204,-7.7277 l -18.9578,-22.47425 21.81231,-21.45808 5.01998,16.75526 c 0.4331,1.11072 1.08275,2.12691 1.88988,2.90677 l 20.84769,18.97667 c 2.79544,2.07964 6.5752,1.51247 8.91785,-1.48883 2.69701,-3.4503 2.53952,-8.90934 -0.35435,-12.12333 -0.0787,-0.0945 -0.17717,-0.18905 -0.25592,-0.28359 l -18.2688,-16.75525 -8.46506,-29.77662 c -1.33867,-3.92294 -3.7207,-7.32598 -7.02798,-9.59467 -5.61057,-3.82843 -12.34325,-3.2849 -17.34354,0.77985 l -28.50564,27.98057 z" />
    <path
       inkscape:connector-curvature="0"
       id="path4020"
       style="fill:#ffffff;fill-opacity:1;fill-rule:nonzero;stroke:none"
       d="m 159.72034,854.49055 c -0.57089,-0.66171 -0.96462,-1.63063 -0.96462,-2.64682 0,-2.00874 1.35835,-3.63936 3.01199,-3.63936 l 45.14046,0.0473 c 4.56721,0.0473 7.38233,15.55001 4.2916,27.74425 -2.87418,11.2962 -11.45737,25.90092 -15.49304,20.96179 l -35.98639,-42.46713 z" />
  </g>
</svg>
