<?xml version="1.0" encoding="UTF-8" standalone="no"?>
<svg
   xmlns:osb="http://www.openswatchbook.org/uri/2009/osb"
   xmlns:dc="http://purl.org/dc/elements/1.1/"
   xmlns:cc="http://creativecommons.org/ns#"
   xmlns:rdf="http://www.w3.org/1999/02/22-rdf-syntax-ns#"
   xmlns:svg="http://www.w3.org/2000/svg"
   xmlns="http://www.w3.org/2000/svg"
   xmlns:sodipodi="http://sodipodi.sourceforge.net/DTD/sodipodi-0.dtd"
   xmlns:inkscape="http://www.inkscape.org/namespaces/inkscape"
   width="200"
   height="200"
   viewBox="0 0 200 200"
   id="svg3001"
   version="1.1"
   inkscape:version="0.48.2 r9819"
   sodipodi:docname="book.svg"
   style="enable-background:new">
  <sodipodi:namedview
     pagecolor="#ffffff"
     bordercolor="#666666"
     borderopacity="1"
     objecttolerance="10"
     gridtolerance="10"
     guidetolerance="10"
     inkscape:pageopacity="0"
     inkscape:pageshadow="2"
     inkscape:window-width="1360"
     inkscape:window-height="706"
     id="namedview3013"
     showgrid="false"
     inkscape:zoom="2.0077941"
     inkscape:cx="100.02972"
     inkscape:cy="94.686256"
     inkscape:window-x="-8"
     inkscape:window-y="-8"
     inkscape:window-maximized="1"
     inkscape:current-layer="layer2"
     fit-margin-top="0"
     fit-margin-left="0"
     fit-margin-right="0"
     fit-margin-bottom="0" />
  <defs
     id="defs3015">
    <linearGradient
       osb:paint="solid"
       id="linearGradient4820">
      <stop
         id="stop4822"
         offset="0"
         style="stop-color:#fbfffe;stop-opacity:1;" />
    </linearGradient>
    <filter
       color-interpolation-filters="sRGB"
       inkscape:menu-tooltip="Invert colors"
       inkscape:menu="Color"
       height="1"
       width="1"
       y="0"
       x="0"
       inkscape:label="Invert"
       id="filter4185">
      <feColorMatrix
         result="fbSourceGraphic"
         values="1"
         type="saturate"
         id="feColorMatrix4187" />
      <feColorMatrix
         values="-1 0 0 0 1 0 -1 0 0 1 0 0 -1 0 1 0 0 0 1 0 "
         in="fbSourceGraphic"
         id="feColorMatrix4189" />
    </filter>
    <filter
       color-interpolation-filters="sRGB"
       inkscape:menu-tooltip="Invert colors"
       inkscape:menu="Color"
       height="1"
       width="1"
       y="0"
       x="0"
       inkscape:label="Invert"
       id="filter4191">
      <feColorMatrix
         result="fbSourceGraphic"
         values="1"
         type="saturate"
         id="feColorMatrix4193" />
      <feColorMatrix
         values="-1 0 0 0 1 0 -1 0 0 1 0 0 -1 0 1 0 0 0 1 0 "
         in="fbSourceGraphic"
         id="feColorMatrix4195" />
    </filter>
    <filter
       color-interpolation-filters="sRGB"
       inkscape:menu-tooltip="Invert colors"
       inkscape:menu="Color"
       height="1"
       width="1"
       y="0"
       x="0"
       inkscape:label="Invert"
       id="filter4197">
      <feColorMatrix
         result="fbSourceGraphic"
         values="1"
         type="saturate"
         id="feColorMatrix4199" />
      <feColorMatrix
         values="-1 0 0 0 1 0 -1 0 0 1 0 0 -1 0 1 0 0 0 1 0 "
         in="fbSourceGraphic"
         id="feColorMatrix4201" />
    </filter>
    <filter
       color-interpolation-filters="sRGB"
       inkscape:menu-tooltip="Invert colors"
       inkscape:menu="Color"
       height="1"
       width="1"
       y="0"
       x="0"
       inkscape:label="Invert"
       id="filter4203">
      <feColorMatrix
         result="fbSourceGraphic"
         values="1"
         type="saturate"
         id="feColorMatrix4205" />
      <feColorMatrix
         values="-1 0 0 0 1 0 -1 0 0 1 0 0 -1 0 1 0 0 0 1 0 "
         in="fbSourceGraphic"
         id="feColorMatrix4207" />
    </filter>
    <filter
       color-interpolation-filters="sRGB"
       inkscape:menu-tooltip="Invert colors"
       inkscape:menu="Color"
       height="1"
       width="1"
       y="0"
       x="0"
       inkscape:label="Invert"
       id="filter4209">
      <feColorMatrix
         result="fbSourceGraphic"
         values="1"
         type="saturate"
         id="feColorMatrix4211" />
      <feColorMatrix
         values="-1 0 0 0 1 0 -1 0 0 1 0 0 -1 0 1 0 0 0 1 0 "
         in="fbSourceGraphic"
         id="feColorMatrix4213" />
    </filter>
    <filter
       color-interpolation-filters="sRGB"
       inkscape:menu-tooltip="Invert colors"
       inkscape:menu="Color"
       height="1"
       width="1"
       y="0"
       x="0"
       inkscape:label="Invert"
       id="filter4215">
      <feColorMatrix
         result="fbSourceGraphic"
         values="1"
         type="saturate"
         id="feColorMatrix4217" />
      <feColorMatrix
         values="-1 0 0 0 1 0 -1 0 0 1 0 0 -1 0 1 0 0 0 1 0 "
         in="fbSourceGraphic"
         id="feColorMatrix4219" />
    </filter>
    <filter
       color-interpolation-filters="sRGB"
       inkscape:menu-tooltip="Invert colors"
       inkscape:menu="Color"
       height="1"
       width="1"
       y="0"
       x="0"
       inkscape:label="Invert"
       id="filter4221">
      <feColorMatrix
         result="fbSourceGraphic"
         values="1"
         type="saturate"
         id="feColorMatrix4223" />
      <feColorMatrix
         values="-1 0 0 0 1 0 -1 0 0 1 0 0 -1 0 1 0 0 0 1 0 "
         in="fbSourceGraphic"
         id="feColorMatrix4225" />
    </filter>
    <filter
       color-interpolation-filters="sRGB"
       inkscape:menu-tooltip="Invert colors"
       inkscape:menu="Color"
       height="1"
       width="1"
       y="0"
       x="0"
       inkscape:label="Invert"
       id="filter4227">
      <feColorMatrix
         result="fbSourceGraphic"
         values="1"
         type="saturate"
         id="feColorMatrix4229" />
      <feColorMatrix
         values="-1 0 0 0 1 0 -1 0 0 1 0 0 -1 0 1 0 0 0 1 0 "
         in="fbSourceGraphic"
         id="feColorMatrix4231" />
    </filter>
    <filter
       color-interpolation-filters="sRGB"
       inkscape:menu-tooltip="Invert colors"
       inkscape:menu="Color"
       height="1"
       width="1"
       y="0"
       x="0"
       inkscape:label="Invert"
       id="filter4233">
      <feColorMatrix
         result="fbSourceGraphic"
         values="1"
         type="saturate"
         id="feColorMatrix4235" />
      <feColorMatrix
         values="-1 0 0 0 1 0 -1 0 0 1 0 0 -1 0 1 0 0 0 1 0 "
         in="fbSourceGraphic"
         id="feColorMatrix4237" />
    </filter>
    <filter
       color-interpolation-filters="sRGB"
       inkscape:menu-tooltip="Invert colors"
       inkscape:menu="Color"
       height="1"
       width="1"
       y="0"
       x="0"
       inkscape:label="Invert"
       id="filter4239">
      <feColorMatrix
         result="fbSourceGraphic"
         values="1"
         type="saturate"
         id="feColorMatrix4241" />
      <feColorMatrix
         values="-1 0 0 0 1 0 -1 0 0 1 0 0 -1 0 1 0 0 0 1 0 "
         in="fbSourceGraphic"
         id="feColorMatrix4243" />
    </filter>
    <filter
       color-interpolation-filters="sRGB"
       inkscape:menu-tooltip="Invert colors"
       inkscape:menu="Color"
       height="1"
       width="1"
       y="0"
       x="0"
       inkscape:label="Invert"
       id="filter4245">
      <feColorMatrix
         result="fbSourceGraphic"
         values="1"
         type="saturate"
         id="feColorMatrix4247" />
      <feColorMatrix
         values="-1 0 0 0 1 0 -1 0 0 1 0 0 -1 0 1 0 0 0 1 0 "
         in="fbSourceGraphic"
         id="feColorMatrix4249" />
    </filter>
    <filter
       color-interpolation-filters="sRGB"
       inkscape:menu-tooltip="Invert colors"
       inkscape:menu="Color"
       height="1"
       width="1"
       y="0"
       x="0"
       inkscape:label="Invert"
       id="filter4245-4">
      <feColorMatrix
         result="fbSourceGraphic"
         values="1"
         type="saturate"
         id="feColorMatrix4247-0" />
      <feColorMatrix
         result="fbSourceGraphic"
         values="-1 0 0 0 1 0 -1 0 0 1 0 0 -1 0 1 0 0 0 1 0 "
         in="fbSourceGraphic"
         id="feColorMatrix4249-9" />
      <feColorMatrix
         id="feColorMatrix5267"
         values="0 0 0 -1 0 0 0 0 -1 0 0 0 0 -1 0 0 0 0 1 0"
         in="fbSourceGraphic"
         result="fbSourceGraphicAlpha" />
      <feColorMatrix
         in="fbSourceGraphic"
         result="fbSourceGraphic"
         values="1"
         type="saturate"
         id="feColorMatrix5269" />
      <feColorMatrix
         values="-1 0 0 0 1 0 -1 0 0 1 0 0 -1 0 1 0 0 0 1 0 "
         in="fbSourceGraphic"
         id="feColorMatrix5271" />
    </filter>
    <filter
       color-interpolation-filters="sRGB"
       inkscape:menu-tooltip="Invert colors"
       inkscape:menu="Color"
       height="1"
       width="1"
       y="0"
       x="0"
       inkscape:label="Invert"
       id="filter4239-4">
      <feColorMatrix
         result="fbSourceGraphic"
         values="1"
         type="saturate"
         id="feColorMatrix4241-8" />
      <feColorMatrix
         result="fbSourceGraphic"
         values="-1 0 0 0 1 0 -1 0 0 1 0 0 -1 0 1 0 0 0 1 0 "
         in="fbSourceGraphic"
         id="feColorMatrix4243-8" />
      <feColorMatrix
         id="feColorMatrix5273"
         values="0 0 0 -1 0 0 0 0 -1 0 0 0 0 -1 0 0 0 0 1 0"
         in="fbSourceGraphic"
         result="fbSourceGraphicAlpha" />
      <feColorMatrix
         in="fbSourceGraphic"
         result="fbSourceGraphic"
         values="1"
         type="saturate"
         id="feColorMatrix5275" />
      <feColorMatrix
         values="-1 0 0 0 1 0 -1 0 0 1 0 0 -1 0 1 0 0 0 1 0 "
         in="fbSourceGraphic"
         id="feColorMatrix5277" />
    </filter>
    <filter
       color-interpolation-filters="sRGB"
       inkscape:menu-tooltip="Invert colors"
       inkscape:menu="Color"
       height="1"
       width="1"
       y="0"
       x="0"
       inkscape:label="Invert"
       id="filter4233-2">
      <feColorMatrix
         result="fbSourceGraphic"
         values="1"
         type="saturate"
         id="feColorMatrix4235-4" />
      <feColorMatrix
         result="fbSourceGraphic"
         values="-1 0 0 0 1 0 -1 0 0 1 0 0 -1 0 1 0 0 0 1 0 "
         in="fbSourceGraphic"
         id="feColorMatrix4237-5" />
      <feColorMatrix
         id="feColorMatrix5279"
         values="0 0 0 -1 0 0 0 0 -1 0 0 0 0 -1 0 0 0 0 1 0"
         in="fbSourceGraphic"
         result="fbSourceGraphicAlpha" />
      <feColorMatrix
         in="fbSourceGraphic"
         result="fbSourceGraphic"
         values="1"
         type="saturate"
         id="feColorMatrix5281" />
      <feColorMatrix
         values="-1 0 0 0 1 0 -1 0 0 1 0 0 -1 0 1 0 0 0 1 0 "
         in="fbSourceGraphic"
         id="feColorMatrix5283" />
    </filter>
    <filter
       color-interpolation-filters="sRGB"
       inkscape:menu-tooltip="Invert colors"
       inkscape:menu="Color"
       height="1"
       width="1"
       y="0"
       x="0"
       inkscape:label="Invert"
       id="filter4227-5">
      <feColorMatrix
         result="fbSourceGraphic"
         values="1"
         type="saturate"
         id="feColorMatrix4229-1" />
      <feColorMatrix
         result="fbSourceGraphic"
         values="-1 0 0 0 1 0 -1 0 0 1 0 0 -1 0 1 0 0 0 1 0 "
         in="fbSourceGraphic"
         id="feColorMatrix4231-7" />
      <feColorMatrix
         id="feColorMatrix5285"
         values="0 0 0 -1 0 0 0 0 -1 0 0 0 0 -1 0 0 0 0 1 0"
         in="fbSourceGraphic"
         result="fbSourceGraphicAlpha" />
      <feColorMatrix
         in="fbSourceGraphic"
         result="fbSourceGraphic"
         values="1"
         type="saturate"
         id="feColorMatrix5287" />
      <feColorMatrix
         values="-1 0 0 0 1 0 -1 0 0 1 0 0 -1 0 1 0 0 0 1 0 "
         in="fbSourceGraphic"
         id="feColorMatrix5289" />
    </filter>
    <filter
       color-interpolation-filters="sRGB"
       inkscape:menu-tooltip="Invert colors"
       inkscape:menu="Color"
       height="1"
       width="1"
       y="0"
       x="0"
       inkscape:label="Invert"
       id="filter4221-1">
      <feColorMatrix
         result="fbSourceGraphic"
         values="1"
         type="saturate"
         id="feColorMatrix4223-1" />
      <feColorMatrix
         result="fbSourceGraphic"
         values="-1 0 0 0 1 0 -1 0 0 1 0 0 -1 0 1 0 0 0 1 0 "
         in="fbSourceGraphic"
         id="feColorMatrix4225-5" />
      <feColorMatrix
         id="feColorMatrix5291"
         values="0 0 0 -1 0 0 0 0 -1 0 0 0 0 -1 0 0 0 0 1 0"
         in="fbSourceGraphic"
         result="fbSourceGraphicAlpha" />
      <feColorMatrix
         in="fbSourceGraphic"
         result="fbSourceGraphic"
         values="1"
         type="saturate"
         id="feColorMatrix5293" />
      <feColorMatrix
         values="-1 0 0 0 1 0 -1 0 0 1 0 0 -1 0 1 0 0 0 1 0 "
         in="fbSourceGraphic"
         id="feColorMatrix5295" />
    </filter>
    <filter
       color-interpolation-filters="sRGB"
       inkscape:menu-tooltip="Invert colors"
       inkscape:menu="Color"
       height="1"
       width="1"
       y="0"
       x="0"
       inkscape:label="Invert"
       id="filter4215-2">
      <feColorMatrix
         result="fbSourceGraphic"
         values="1"
         type="saturate"
         id="feColorMatrix4217-7" />
      <feColorMatrix
         result="fbSourceGraphic"
         values="-1 0 0 0 1 0 -1 0 0 1 0 0 -1 0 1 0 0 0 1 0 "
         in="fbSourceGraphic"
         id="feColorMatrix4219-6" />
      <feColorMatrix
         id="feColorMatrix5297"
         values="0 0 0 -1 0 0 0 0 -1 0 0 0 0 -1 0 0 0 0 1 0"
         in="fbSourceGraphic"
         result="fbSourceGraphicAlpha" />
      <feColorMatrix
         in="fbSourceGraphic"
         result="fbSourceGraphic"
         values="1"
         type="saturate"
         id="feColorMatrix5299" />
      <feColorMatrix
         values="-1 0 0 0 1 0 -1 0 0 1 0 0 -1 0 1 0 0 0 1 0 "
         in="fbSourceGraphic"
         id="feColorMatrix5301" />
    </filter>
    <filter
       color-interpolation-filters="sRGB"
       inkscape:menu-tooltip="Invert colors"
       inkscape:menu="Color"
       height="1"
       width="1"
       y="0"
       x="0"
       inkscape:label="Invert"
       id="filter4209-1">
      <feColorMatrix
         result="fbSourceGraphic"
         values="1"
         type="saturate"
         id="feColorMatrix4211-4" />
      <feColorMatrix
         result="fbSourceGraphic"
         values="-1 0 0 0 1 0 -1 0 0 1 0 0 -1 0 1 0 0 0 1 0 "
         in="fbSourceGraphic"
         id="feColorMatrix4213-2" />
      <feColorMatrix
         id="feColorMatrix5303"
         values="0 0 0 -1 0 0 0 0 -1 0 0 0 0 -1 0 0 0 0 1 0"
         in="fbSourceGraphic"
         result="fbSourceGraphicAlpha" />
      <feColorMatrix
         in="fbSourceGraphic"
         result="fbSourceGraphic"
         values="1"
         type="saturate"
         id="feColorMatrix5305" />
      <feColorMatrix
         values="-1 0 0 0 1 0 -1 0 0 1 0 0 -1 0 1 0 0 0 1 0 "
         in="fbSourceGraphic"
         id="feColorMatrix5307" />
    </filter>
    <filter
       color-interpolation-filters="sRGB"
       inkscape:menu-tooltip="Invert colors"
       inkscape:menu="Color"
       height="1"
       width="1"
       y="0"
       x="0"
       inkscape:label="Invert"
       id="filter4203-3">
      <feColorMatrix
         result="fbSourceGraphic"
         values="1"
         type="saturate"
         id="feColorMatrix4205-2" />
      <feColorMatrix
         result="fbSourceGraphic"
         values="-1 0 0 0 1 0 -1 0 0 1 0 0 -1 0 1 0 0 0 1 0 "
         in="fbSourceGraphic"
         id="feColorMatrix4207-2" />
      <feColorMatrix
         id="feColorMatrix5309"
         values="0 0 0 -1 0 0 0 0 -1 0 0 0 0 -1 0 0 0 0 1 0"
         in="fbSourceGraphic"
         result="fbSourceGraphicAlpha" />
      <feColorMatrix
         in="fbSourceGraphic"
         result="fbSourceGraphic"
         values="1"
         type="saturate"
         id="feColorMatrix5311" />
      <feColorMatrix
         values="-1 0 0 0 1 0 -1 0 0 1 0 0 -1 0 1 0 0 0 1 0 "
         in="fbSourceGraphic"
         id="feColorMatrix5313" />
    </filter>
    <filter
       color-interpolation-filters="sRGB"
       inkscape:menu-tooltip="Invert colors"
       inkscape:menu="Color"
       height="1"
       width="1"
       y="0"
       x="0"
       inkscape:label="Invert"
       id="filter4197-1">
      <feColorMatrix
         result="fbSourceGraphic"
         values="1"
         type="saturate"
         id="feColorMatrix4199-6" />
      <feColorMatrix
         result="fbSourceGraphic"
         values="-1 0 0 0 1 0 -1 0 0 1 0 0 -1 0 1 0 0 0 1 0 "
         in="fbSourceGraphic"
         id="feColorMatrix4201-8" />
      <feColorMatrix
         id="feColorMatrix5315"
         values="0 0 0 -1 0 0 0 0 -1 0 0 0 0 -1 0 0 0 0 1 0"
         in="fbSourceGraphic"
         result="fbSourceGraphicAlpha" />
      <feColorMatrix
         in="fbSourceGraphic"
         result="fbSourceGraphic"
         values="1"
         type="saturate"
         id="feColorMatrix5317" />
      <feColorMatrix
         values="-1 0 0 0 1 0 -1 0 0 1 0 0 -1 0 1 0 0 0 1 0 "
         in="fbSourceGraphic"
         id="feColorMatrix5319" />
    </filter>
    <filter
       color-interpolation-filters="sRGB"
       inkscape:menu-tooltip="Invert colors"
       inkscape:menu="Color"
       height="1"
       width="1"
       y="0"
       x="0"
       inkscape:label="Invert"
       id="filter4191-5">
      <feColorMatrix
         result="fbSourceGraphic"
         values="1"
         type="saturate"
         id="feColorMatrix4193-7" />
      <feColorMatrix
         result="fbSourceGraphic"
         values="-1 0 0 0 1 0 -1 0 0 1 0 0 -1 0 1 0 0 0 1 0 "
         in="fbSourceGraphic"
         id="feColorMatrix4195-6" />
      <feColorMatrix
         id="feColorMatrix5321"
         values="0 0 0 -1 0 0 0 0 -1 0 0 0 0 -1 0 0 0 0 1 0"
         in="fbSourceGraphic"
         result="fbSourceGraphicAlpha" />
      <feColorMatrix
         in="fbSourceGraphic"
         result="fbSourceGraphic"
         values="1"
         type="saturate"
         id="feColorMatrix5323" />
      <feColorMatrix
         values="-1 0 0 0 1 0 -1 0 0 1 0 0 -1 0 1 0 0 0 1 0 "
         in="fbSourceGraphic"
         id="feColorMatrix5325" />
    </filter>
    <filter
       color-interpolation-filters="sRGB"
       inkscape:menu-tooltip="Invert colors"
       inkscape:menu="Color"
       height="1"
       width="1"
       y="0"
       x="0"
       inkscape:label="Invert"
       id="filter4185-1">
      <feColorMatrix
         result="fbSourceGraphic"
         values="1"
         type="saturate"
         id="feColorMatrix4187-8" />
      <feColorMatrix
         result="fbSourceGraphic"
         values="-1 0 0 0 1 0 -1 0 0 1 0 0 -1 0 1 0 0 0 1 0 "
         in="fbSourceGraphic"
         id="feColorMatrix4189-9" />
      <feColorMatrix
         id="feColorMatrix5327"
         values="0 0 0 -1 0 0 0 0 -1 0 0 0 0 -1 0 0 0 0 1 0"
         in="fbSourceGraphic"
         result="fbSourceGraphicAlpha" />
      <feColorMatrix
         in="fbSourceGraphic"
         result="fbSourceGraphic"
         values="1"
         type="saturate"
         id="feColorMatrix5329" />
      <feColorMatrix
         values="-1 0 0 0 1 0 -1 0 0 1 0 0 -1 0 1 0 0 0 1 0 "
         in="fbSourceGraphic"
         id="feColorMatrix5331" />
    </filter>
    <filter
       color-interpolation-filters="sRGB"
       inkscape:menu-tooltip="Invert colors"
       inkscape:menu="Color"
       height="1"
       width="1"
       y="0"
       x="0"
       inkscape:label="Invert"
       id="filter5225">
      <feColorMatrix
         result="fbSourceGraphic"
         values="1"
         type="saturate"
         id="feColorMatrix5227" />
      <feColorMatrix
         values="-1 0 0 0 1 0 -1 0 0 1 0 0 -1 0 1 0 0 0 1 0 "
         in="fbSourceGraphic"
         id="feColorMatrix5229" />
    </filter>
    <filter
       color-interpolation-filters="sRGB"
       inkscape:menu-tooltip="Invert colors"
       inkscape:menu="Color"
       height="1"
       width="1"
       y="0"
       x="0"
       inkscape:label="Invert"
       id="filter5231">
      <feColorMatrix
         result="fbSourceGraphic"
         values="1"
         type="saturate"
         id="feColorMatrix5233" />
      <feColorMatrix
         values="-1 0 0 0 1 0 -1 0 0 1 0 0 -1 0 1 0 0 0 1 0 "
         in="fbSourceGraphic"
         id="feColorMatrix5235" />
    </filter>
    <filter
       color-interpolation-filters="sRGB"
       inkscape:menu-tooltip="Invert colors"
       inkscape:menu="Color"
       height="1"
       width="1"
       y="0"
       x="0"
       inkscape:label="Invert"
       id="filter5237">
      <feColorMatrix
         result="fbSourceGraphic"
         values="1"
         type="saturate"
         id="feColorMatrix5239" />
      <feColorMatrix
         values="-1 0 0 0 1 0 -1 0 0 1 0 0 -1 0 1 0 0 0 1 0 "
         in="fbSourceGraphic"
         id="feColorMatrix5241" />
    </filter>
    <filter
       color-interpolation-filters="sRGB"
       inkscape:menu-tooltip="Invert colors"
       inkscape:menu="Color"
       height="1"
       width="1"
       y="0"
       x="0"
       inkscape:label="Invert"
       id="filter5243">
      <feColorMatrix
         result="fbSourceGraphic"
         values="1"
         type="saturate"
         id="feColorMatrix5245" />
      <feColorMatrix
         values="-1 0 0 0 1 0 -1 0 0 1 0 0 -1 0 1 0 0 0 1 0 "
         in="fbSourceGraphic"
         id="feColorMatrix5247" />
    </filter>
    <filter
       color-interpolation-filters="sRGB"
       inkscape:menu-tooltip="Invert colors"
       inkscape:menu="Color"
       height="1"
       width="1"
       y="0"
       x="0"
       inkscape:label="Invert"
       id="filter5249">
      <feColorMatrix
         result="fbSourceGraphic"
         values="1"
         type="saturate"
         id="feColorMatrix5251" />
      <feColorMatrix
         values="-1 0 0 0 1 0 -1 0 0 1 0 0 -1 0 1 0 0 0 1 0 "
         in="fbSourceGraphic"
         id="feColorMatrix5253" />
    </filter>
    <filter
       color-interpolation-filters="sRGB"
       inkscape:menu-tooltip="Invert colors"
       inkscape:menu="Color"
       height="1"
       width="1"
       y="0"
       x="0"
       inkscape:label="Invert"
       id="filter5255">
      <feColorMatrix
         result="fbSourceGraphic"
         values="1"
         type="saturate"
         id="feColorMatrix5257" />
      <feColorMatrix
         values="-1 0 0 0 1 0 -1 0 0 1 0 0 -1 0 1 0 0 0 1 0 "
         in="fbSourceGraphic"
         id="feColorMatrix5259" />
    </filter>
    <filter
       color-interpolation-filters="sRGB"
       inkscape:menu-tooltip="Invert colors"
       inkscape:menu="Color"
       height="1"
       width="1"
       y="0"
       x="0"
       inkscape:label="Invert"
       id="filter5261">
      <feColorMatrix
         result="fbSourceGraphic"
         values="1"
         type="saturate"
         id="feColorMatrix5263" />
      <feColorMatrix
         values="-1 0 0 0 1 0 -1 0 0 1 0 0 -1 0 1 0 0 0 1 0 "
         in="fbSourceGraphic"
         id="feColorMatrix5265" />
    </filter>
    <filter
       id="filter3999"
       inkscape:label="Glow"
       inkscape:menu="Shadows and Glows"
       inkscape:menu-tooltip="Glow of object's own color at the edges"
       height="1.5"
       width="1.5"
       y="-0.25"
       x="-0.25"
       color-interpolation-filters="sRGB">
      <feGaussianBlur
         id="feGaussianBlur4001"
         stdDeviation="4"
         result="result1" />
      <feComposite
         id="feComposite4003"
         in2="result1"
         in="result1"
         result="result4"
         operator="in" />
      <feGaussianBlur
         id="feGaussianBlur4005"
         stdDeviation="2"
         result="result6"
         in="result4" />
      <feComposite
         id="feComposite4007"
         in2="result4"
         operator="xor"
         in="result6"
         result="result8" />
      <feComposite
         id="feComposite4009"
         in2="result8"
         operator="atop"
         result="fbSourceGraphic"
         in="result4" />
      <feSpecularLighting
         id="feSpecularLighting4011"
         specularExponent="10"
         specularConstant="1.3"
         surfaceScale="3"
         lighting-color="rgb(255,255,255)"
         result="result1"
         in="fbSourceGraphic">
        <feDistantLight
           id="feDistantLight4013"
           azimuth="235"
           elevation="55" />
      </feSpecularLighting>
      <feComposite
         id="feComposite4015"
         in2="fbSourceGraphic"
         operator="atop"
         result="result2"
         in="result1" />
      <feComposite
         id="feComposite4017"
         in2="result2"
         k3="1"
         k2="1"
         operator="arithmetic"
         result="result4"
         in="fbSourceGraphic" />
      <feComposite
         id="feComposite4019"
         in2="SourceGraphic"
         operator="over"
         in="result4"
         result="result9" />
      <feBlend
         id="feBlend4021"
         in2="result2"
         mode="multiply"
         result="fbSourceGraphic" />
      <feColorMatrix
         result="fbSourceGraphicAlpha"
         in="fbSourceGraphic"
         values="0 0 0 -1 0 0 0 0 -1 0 0 0 0 -1 0 0 0 0 1 0"
         id="feColorMatrix4148" />
      <feGaussianBlur
         id="feGaussianBlur4150"
         stdDeviation="5"
         result="result91"
         in="fbSourceGraphic" />
      <feComposite
         id="feComposite4152"
         in2="result91"
         in="fbSourceGraphic"
         operator="over" />
    </filter>
    <clipPath
       id="clipPath">
      <path
         inkscape:connector-curvature="0"
         d="m 210.99912,205.98077 c 14.86275,0 26.98165,-12.09487 26.98165,-27.02483 l 0,-171.9578231 c 0,-14.9297027 -12.1189,-26.9788769 -26.98165,-26.9788769 l -171.998027,0 c -14.931487,0 -26.981862,12.0491742 -26.981862,26.9788769 l 0,171.9578231 c 0,14.92996 12.050375,27.02483 26.981862,27.02483 l 171.998027,0 z"
         style="fill:#1589ff;fill-opacity:1;fill-rule:nonzero;stroke:#ffffff;stroke-width:9.03846169000000010;stroke-miterlimit:4;stroke-opacity:1;stroke-dasharray:none;display:inline;"
         id="path4826"
         transform="matrix(0.8,0,0,0.79999995,0,43.600003)" />
    </clipPath>
    <filter
       id="filter"
       height="2.0"
       width="2.0"
       x="-0.5"
       y="-0.5">
      <feGaussianBlur
         stdDeviation="5.0"
         id="feGaussianBlur3298" />
    </filter>
    <clipPath
       id="clipPatho">
      <path
         id="path4010"
         style="fill:#1589ff;fill-opacity:1;fill-rule:nonzero;stroke:none;display:inline;"
         d="M 220.14796,218 C 236.59186,218 250,204.61843 250,188.10017 L 250,-2.1510431 C 250,-18.669014 236.59186,-32.000014 220.14796,-32.000014 l -190.29569,0 C 13.33233,-32.000014 0,-18.669014 0,-2.1510431 L 0,188.10017 C 0,204.61843 13.33233,218 29.85227,218 l 190.29569,0 z"
         inkscape:connector-curvature="0"
         transform="matrix(0.8,0,0,0.79999995,0,43.600003)" />
    </clipPath>
    <filter
       y="-0.5"
       x="-0.5"
       width="2.0"
       height="2.0"
       id="filtere">
      <feGaussianBlur
         id="feGaussianBlur3681"
         stdDeviation="5.0" />
    </filter>
  </defs>
  <metadata
     id="imagebot_9">image/svg+xml<rdf:RDF>
  <cc:Work
     rdf:about="">
    <dc:format>image/svg+xml</dc:format>
    <dc:type
       rdf:resource="http://purl.org/dc/dcmitype/StillImage" />
  </cc:Work>
</rdf:RDF>
</metadata>
  <path
     inkscape:connector-curvature="0"
     id="path3038"
     d=""
     style="fill:#000000" />
  <path
     inkscape:connector-curvature="0"
     id="path3076"
     d=""
     style="fill:#000000" />
  <g
     style="display:inline"
     inkscape:label="Bottom"
     id="layer1"
     inkscape:groupmode="layer"
     transform="translate(0,-17.999993)" />
  <g
     inkscape:label="Top"
     id="layer2"
     inkscape:groupmode="layer"
     transform="translate(0,-17.999993)">
    <path
       id="path3688"
       style="fill:#1589ff;fill-opacity:1;fill-rule:nonzero;stroke:none;display:inline;"
       d="M 220.14796,218 C 236.59186,218 250,204.61843 250,188.10017 L 250,-2.1510431 C 250,-18.669014 236.59186,-32.000014 220.14796,-32.000014 l -190.29569,0 C 13.33233,-32.000014 0,-18.669014 0,-2.1510431 L 0,188.10017 C 0,204.61843 13.33233,218 29.85227,218 l 190.29569,0 z"
       inkscape:connector-curvature="0"
       transform="matrix(0.8,0,0,0.79999995,0,43.600003)" />
    <g
       id="g3209">
      <g
         id="g3180">
        <path
           inkscape:connector-curvature="0"
           d="m 210.99912,205.98077 c 14.86275,0 26.98165,-12.09487 26.98165,-27.02483 l 0,-171.9578231 c 0,-14.9297027 -12.1189,-26.9788769 -26.98165,-26.9788769 l -171.998027,0 c -14.931487,0 -26.981862,12.0491742 -26.981862,26.9788769 l 0,171.9578231 c 0,14.92996 12.050375,27.02483 26.981862,27.02483 l 171.998027,0 z"
           style="fill:#1589ff;fill-opacity:1;fill-rule:nonzero;stroke:#ffffff;stroke-width:9.03846169000000010;stroke-miterlimit:4;stroke-opacity:1;stroke-dasharray:none;display:inline;"
           id="path3308"
           transform="matrix(0.8,0,0,0.79999995,0,43.600003)" />
        <g
           id="g4023">
          <g
             id="text3881"
             style="font-size:38.45574188px;font-style:normal;font-variant:normal;font-weight:bold;font-stretch:normal;text-align:start;line-height:125%;letter-spacing:0px;word-spacing:0px;writing-mode:lr-tb;text-anchor:start;fill:#ffffff;fill-opacity:1;stroke:none;display:inline;enable-background:new;font-family:Raavi;-inkscape-font-specification:Raavi Bold"
             transform="matrix(0.74608144,0,0,0.71484601,0,72.66666)">
            <path
               id="path3136"
               d="m 105.11314,-23.027131 c -0.16275,-0.463164 -0.38808,-0.89191 -0.67598,-1.286239 -0.28793,-0.394314 -0.61966,-0.735433 -0.99519,-1.023359 -0.37556,-0.287908 -0.79179,-0.513234 -1.24869,-0.67598 -0.45692,-0.162726 -0.942,-0.244094 -1.45523,-0.244104 l -4.957188,0 0,9.970703 -4.637973,0 0,-24.785927 11.116111,0 c 0.66345,2.4e-5 1.29561,0.01567 1.8965,0.04694 0.60086,0.03132 1.17669,0.103299 1.72751,0.215938 0.55078,0.112687 1.07654,0.281682 1.57728,0.506985 0.50071,0.22535 0.98266,0.532044 1.44585,0.920083 0.81366,0.688521 1.42391,1.527236 1.83078,2.516147 0.40681,0.988954 0.61023,2.002922 0.61026,3.04191 -3e-5,1.514711 -0.36618,2.813468 -1.09847,3.896272 -0.73233,1.082833 -1.73691,1.912159 -3.01375,2.487982 0.53827,0.400591 1.02021,0.910705 1.44585,1.530343 0.4256,0.619657 0.80114,1.380134 1.12663,2.281432 l 2.66637,7.341892 -4.99474,0 z m -9.332278,-7.49211 6.158928,0 c 0.82618,1.4e-5 1.53346,-0.05632 2.12183,-0.168995 0.58833,-0.112649 1.07028,-0.300421 1.44584,-0.563316 0.37553,-0.262866 0.65093,-0.603985 0.8262,-1.023359 0.17523,-0.419341 0.26286,-0.935714 0.26288,-1.54912 -2e-5,-1.101578 -0.34114,-1.908998 -1.02336,-2.422261 -0.68225,-0.513224 -1.73691,-0.769846 -3.16396,-0.769866 l -6.628358,0 z"
               inkscape:connector-curvature="0" />
            <path
               id="path3138"
               d="m 132.39644,-21.900498 c -0.22535,0.97642 -0.57898,1.840171 -1.06092,2.591256 -0.48196,0.751091 -1.06405,1.383257 -1.74628,1.896499 -0.68225,0.513245 -1.45212,0.901307 -2.30959,1.164188 -0.85751,0.26288 -1.77446,0.394321 -2.75087,0.394321 -1.31441,0 -2.51302,-0.212809 -3.59583,-0.638425 -1.08283,-0.425617 -2.0123,-1.042135 -2.78842,-1.849556 -0.77613,-0.807418 -1.377,-1.793221 -1.80261,-2.957412 -0.42562,-1.164181 -0.63843,-2.484844 -0.63843,-3.961993 0,-1.452094 0.20655,-2.75711 0.61965,-3.91505 0.41309,-1.157914 0.99519,-2.143717 1.74628,-2.957412 0.75108,-0.813662 1.64613,-1.43644 2.68514,-1.868333 1.039,-0.431858 2.19067,-0.647795 3.45501,-0.647814 1.30188,1.9e-5 2.47545,0.212827 3.52073,0.638426 1.04525,0.425634 1.93717,1.039022 2.67575,1.840167 0.73856,0.801176 1.30813,1.78385 1.70873,2.948023 0.40056,1.164199 0.60085,2.484862 0.60087,3.961993 l 0,1.408291 -12.35541,0 c 0.22532,1.414557 0.7104,2.475469 1.45523,3.182739 0.74483,0.707279 1.64926,1.060916 2.71331,1.060913 0.33798,3e-6 0.6791,-0.05007 1.02336,-0.150218 0.34424,-0.100142 0.66345,-0.24723 0.95764,-0.441265 0.29416,-0.194027 0.55078,-0.431871 0.76987,-0.713534 0.21905,-0.281653 0.37866,-0.610254 0.47881,-0.985804 z m -4.4502,-5.689497 c -0.28793,-1.101584 -0.75736,-1.927781 -1.40829,-2.478593 -0.65096,-0.550784 -1.42708,-0.826183 -2.32838,-0.826197 -0.8888,1.4e-5 -1.66492,0.275413 -2.32837,0.826197 -0.66347,0.550812 -1.13916,1.377009 -1.42707,2.478593 z"
               inkscape:connector-curvature="0" />
            <path
               id="path3140"
               d="m 147.19288,-24.266427 -1.29563,0 c -3.75545,8e-6 -5.63317,0.913831 -5.63316,2.741473 -1e-5,0.600876 0.2441,1.070306 0.73231,1.408292 0.4882,0.337993 1.1454,0.506988 1.97161,0.506985 0.82619,3e-6 1.62109,-0.165862 2.3847,-0.497597 0.7636,-0.331726 1.37699,-0.816804 1.84017,-1.455234 z m -10.94712,-4.65675 c 0.52576,-3.818018 3.15457,-5.727033 7.88644,-5.727052 1.15165,1.9e-5 2.18753,0.103293 3.10762,0.309824 0.92007,0.206567 1.70246,0.572723 2.34716,1.098467 0.64467,0.525779 1.13913,1.239313 1.4834,2.140603 0.34423,0.901321 0.51635,2.04673 0.51637,3.436231 l 0,11.378994 -4.39387,0 0,-0.938861 c -0.72606,0.438136 -1.51158,0.776125 -2.35654,1.01397 -0.84498,0.237844 -1.74942,0.356767 -2.71331,0.356767 -0.90131,0 -1.74003,-0.13457 -2.51614,-0.40371 -0.77613,-0.26914 -1.44898,-0.647813 -2.01856,-1.136022 -0.56957,-0.488206 -1.0171,-1.070299 -1.34257,-1.746281 -0.32547,-0.675976 -0.48821,-1.420805 -0.4882,-2.234489 -1e-5,-4.343787 3.57392,-6.515683 10.72179,-6.515694 l 0.71353,0 c -0.0125,-0.488196 -0.0532,-0.916942 -0.12205,-1.28624 -0.0689,-0.369272 -0.21595,-0.682225 -0.44126,-0.938861 -0.22534,-0.256608 -0.55082,-0.450639 -0.97642,-0.582094 -0.42563,-0.131426 -0.9952,-0.197146 -1.70873,-0.19716 -0.88879,1.4e-5 -1.59294,0.137714 -2.11243,0.413098 -0.51951,0.275414 -0.87315,0.794916 -1.06092,1.55851 l -4.52531,0 z"
               inkscape:connector-curvature="0" />
            <path
               id="path3142"
               d="m 167.22818,-29.298722 c -1.13917,-1.064028 -2.35343,-1.596049 -3.64278,-1.596063 -1.0265,1.4e-5 -1.84644,0.475703 -2.45982,1.427068 -0.61339,0.951392 -0.92009,2.390977 -0.92008,4.31876 -1e-5,1.827657 0.28791,3.201522 0.86375,4.1216 0.57583,0.920087 1.37699,1.380128 2.40348,1.380125 1.3144,3e-6 2.56621,-0.78238 3.75545,-2.347152 z m 0,12.073751 c -0.60089,0.438136 -1.22992,0.776125 -1.88711,1.01397 -0.65722,0.237844 -1.3551,0.356767 -2.09366,0.356767 -1.22679,0 -2.31274,-0.222197 -3.25785,-0.666591 -0.94513,-0.444394 -1.7369,-1.07343 -2.37532,-1.887111 -0.63843,-0.813676 -1.1235,-1.79322 -1.45523,-2.938634 -0.33174,-1.145404 -0.4976,-2.412865 -0.4976,-3.802387 0,-1.47713 0.19716,-2.800923 0.59148,-3.971381 0.39432,-1.170433 0.93886,-2.165624 1.63362,-2.985578 0.69475,-0.819922 1.51469,-1.448958 2.45982,-1.88711 0.94511,-0.438117 1.96221,-0.657184 3.05129,-0.657203 0.71353,1.9e-5 1.38951,0.08139 2.02794,0.244104 0.63842,0.162754 1.23929,0.400598 1.80262,0.713534 l 0,-7.379446 4.39387,0 0,24.785927 -4.39387,0 z"
               inkscape:connector-curvature="0" />
          </g>
          <g
             id="imagebot_4"
             transform="matrix(0.5119264,0,0,0.56067694,-95.931872,-253.23041)"
             style="fill:#f9f9f9;filter:url(#filter4185-1)">
            <path
               stroke-miterlimit="4"
               id="imagebot_6"
               d="m 265.74799,616.53497 c 42.52002,0 85.039,-31.88897 116.92901,0 31.88999,-31.88897 74.41001,0 116.92899,0 l 0,159.44904 c -42.51898,0 -85.039,-31.89002 -116.92899,0 -31.89001,-31.89002 -74.40899,0 -116.92901,0 l 0,-159.44904 z"
               inkscape:connector-curvature="0"
               style="fill:#f9f9f9;stroke:#a0a0a0;stroke-width:5.35577011;stroke-miterlimit:4" />
            <path
               stroke-miterlimit="4"
               id="imagebot_5"
               d="m 382.67719,616.5354 0,157.64026"
               inkscape:connector-curvature="0"
               style="fill:#f9f9f9;stroke:#a0a0a0;stroke-width:5.25725985;stroke-miterlimit:4" />
          </g>
          <path
             style="fill:#000000;filter:url(#filter4191-5)"
             d="m 125.17633,205.74254 c -3.66653,-0.767 -8.02439,-3.40697 -12.11608,-7.33985 l -1.79581,-1.72611 -36.104566,-0.5177 c -19.857498,-0.28475 -38.706858,-0.51585 -41.887458,-0.51354 l -5.78292,0.005 1.7e-4,-38.80842 c 10e-5,-21.34462 0.10663,-62.144973 0.23673,-90.667433 l 0.23655,-51.85903 18.53552,0.0394 c 11.67894,0.0247 18.14058,0.19291 17.4679,0.45446 -4.90584,1.90743 -16.23422,4.08535 -21.24982,4.08535 l -3.12741,0 0,3.20541 0,3.20541 -1.5428,0 -1.54281,0 -0.23632,38.80841 c -0.12997,21.34463 -0.23643,57.169183 -0.23655,79.610103 l -2.4e-4,40.80168 14.67972,0.29367 c 8.07384,0.16149 25.669908,0.42801 39.102368,0.59221 l 24.422646,0.29855 2.60451,2.67107 c 3.23316,3.31577 6.64274,5.63751 9.30529,6.33638 3.79209,0.99533 7.65154,-1.06736 12.2524,-6.54837 l 2.17322,-2.58894 39.27798,-0.1165 39.27797,-0.1165 0,-79.90639 0,-79.906413 -2.04626,-0.13733 -2.04626,-0.13733 0,-3.18256 0,-3.18256 -3.31446,0 c -4.90024,0 -14.12367,-1.77224 -21.24072,-4.08131 -0.77055,-0.25001 6.04902,-0.42198 17.88257,-0.45098 l 19.12811,-0.0469 0,91.125353 0,91.12537 -41.78589,0 -41.78588,0 -1.77726,1.94613 c -5.22412,5.72057 -11.46608,8.38123 -16.96414,7.23107 z"
             id="path3030"
             inkscape:connector-curvature="0"
             transform="matrix(0.69851093,0,0,0.58332223,10.813875,72.813911)" />
          <path
             style="fill:#000000;filter:url(#filter4197-1)"
             d="m 125.09695,175.47823 c -7.49468,-9.06444 -16.073,-12.61266 -27.597216,-11.41494 -5.90541,0.61376 -11.02929,1.9422 -24.81451,6.43348 -15.171828,4.9431 -23.664208,6.83439 -30.693948,6.83569 l -2.04627,3.9e-4 -0.002,-74.5259 c -10e-4,-40.989233 -0.10452,-76.521133 -0.23003,-78.959783 l -0.2282,-4.43389 3.87773,-0.22037 c 2.13274,-0.1212 4.46527,-0.23071 5.18338,-0.24337 0.71811,-0.0127 1.39888,-0.21712 1.51281,-0.45431 0.11392,-0.23721 0.50139,-0.33228 0.86102,-0.21126 1.16547,0.39217 8.87052,-1.66319 20.978958,-5.59623 14.92065,-4.8465104 20.26473,-6.1647904 26.58711,-6.5585104 11.570976,-0.72058 19.319966,2.31914 27.407866,10.7513804 l 1.4292,1.49006 1.87859,-2.00735 c 5.33212,-5.69763 12.02683,-9.2607804 19.1064,-10.1690604 4.01814,-0.51551 12.08454,0.0745 16.90392,1.23649 2.25089,0.54269 8.8968,2.53701 14.76868,4.4318304 5.8719,1.89481 10.99645,3.50352 11.38791,3.57491 0.39146,0.0714 0.95195,0.25906 1.24556,0.41707 0.29358,0.158 1.01421,0.36421 1.6014,0.45825 0.58719,0.094 1.30785,0.28281 1.60143,0.41947 0.77237,0.35953 4.86052,1.29036 5.21534,1.18748 0.16531,-0.0479 0.54088,0.0343 0.83449,0.18268 0.91446,0.46233 7.28548,1.24927 10.11404,1.24927 l 2.69735,0 0,78.99056 0,78.990583 -2.04626,-0.001 c -7.16083,-0.005 -15.66701,-1.89826 -30.79719,-6.85292 -13.70153,-4.48683 -18.80969,-5.80701 -24.88403,-6.43112 -11.43528,-1.17494 -19.68699,2.21903 -27.22307,11.19696 l -2.43028,2.89525 -2.20034,-2.66121 0,-2e-4 z M 48.435976,172.0733 c 4.70244,-0.41929 11.53591,-2.21743 24.496168,-6.44584 17.81855,-5.81345 25.60042,-7.27941 33.027106,-6.2217 6.44327,0.91765 11.31591,3.12461 16.28115,7.37423 l 3.11387,2.66508 0,-73.385663 0,-73.38565 -1.60088,-1.89877 c -3.34922,-3.97243 -8.24974,-7.3285 -13.16781,-9.01779 -2.03172,-0.69787 -3.77084,-0.85474 -9.4306,-0.85066 -8.390156,0.006 -10.187696,0.39829 -27.375096,5.97328 -15.462698,5.01557 -23.759598,7.05105 -28.741078,7.05105 l -1.53508,0 0,74.39995 0,74.399963 0.97865,-0.19608 c 0.53826,-0.10792 2.31738,-0.31548 3.9536,-0.46137 z m 162.683414,-73.731033 0,-74.4114 -1.53508,0 c -4.89507,0 -13.89058,-2.17536 -27.49442,-6.64887 -15.35724,-5.0501 -20.18741,-6.2116 -27.02032,-6.4975 -4.3193,-0.18073 -6.48468,-0.0606 -8.96927,0.49745 -6.161,1.38387 -12.10306,5.25587 -16.38659,10.67792 l -0.80073,1.01354 0,73.28742 c 0,40.308093 0.0796,73.287433 0.17704,73.287433 0.0974,0 1.113,-0.88668 2.25707,-1.9704 3.71386,-3.51793 8.73605,-6.26037 14.11404,-7.70716 1.17438,-0.31593 4.61743,-0.57923 7.65124,-0.58511 7.84539,-0.0156 12.56096,1.05828 30.07119,6.84571 12.59963,4.16441 18.83575,5.69155 25.80071,6.31826 0.88078,0.0793 1.72154,0.18022 1.86832,0.22416 0.14672,0.044 0.26691,-33.40512 0.26691,-74.331403 z"
             id="path3032"
             inkscape:connector-curvature="0"
             transform="matrix(0.69851093,0,0,0.58332223,10.813875,72.813911)" />
          <path
             style="fill:#000000;filter:url(#filter4203-3)"
             d="m 125.69374,16.104687 -1.58502,-1.76274 3.11387,-0.0138 c 1.71264,-0.007 3.11388,0.0457 3.11388,0.11833 0,0.0726 -0.68798,0.87197 -1.52886,1.7764 l -1.52884,1.64442 -1.58503,-1.76274 z"
             id="path3040"
             inkscape:connector-curvature="0"
             transform="matrix(0.69851093,0,0,0.58332223,10.813875,72.813911)" />
          <path
             style="fill:#000000;filter:url(#filter4209-1)"
             d="m 125.09695,181.43115 c -7.49468,-9.06444 -16.073,-12.61266 -27.597216,-11.41494 -5.90541,0.61376 -11.02929,1.94218 -24.81451,6.4335 -15.171828,4.94306 -23.664208,6.83435 -30.693948,6.83567 l -2.04627,3.9e-4 0,-2.97646 0,-2.97646 1.77936,0 c 1.33101,0 1.77936,0.17007 1.77936,0.67542 0,0.47911 0.28448,0.61844 0.97865,0.47931 0.53826,-0.10791 2.31738,-0.31546 3.9536,-0.46134 4.70244,-0.4193 11.53591,-2.21744 24.496168,-6.44585 17.81855,-5.81346 25.60042,-7.27945 33.027106,-6.22174 8.09529,1.15295 13.77029,4.25966 18.98748,10.39447 1.59664,1.87748 2.39459,2.53425 2.71423,2.23398 0.24898,-0.23404 1.67841,-1.79479 3.17648,-3.46862 5.75135,-6.42612 12.55631,-9.26114 22.27483,-9.27999 7.84539,-0.0156 12.56096,1.05831 30.07118,6.84574 10.28589,3.39967 16.05825,4.9665 20.81851,5.65088 6.02381,0.86609 7.11743,0.89948 7.11743,0.2174 0,-0.4383 0.52075,-0.61966 1.77936,-0.61966 l 1.77937,0 0,2.97646 0,2.97646 -2.04626,-0.002 c -7.16083,-0.005 -15.66701,-1.89826 -30.79719,-6.85294 -13.70153,-4.48684 -18.80969,-5.80699 -24.88403,-6.43113 -11.43528,-1.17494 -19.68699,2.21902 -27.22307,11.19697 l -2.43028,2.89525 -2.20034,-2.66121 0,0 z"
             id="path3044"
             inkscape:connector-curvature="0"
             transform="matrix(0.69851093,0,0,0.58332223,10.813875,72.813911)" />
          <path
             style="fill:#000000;filter:url(#filter4215-2)"
             d="m 43.503726,27.676457 0,-2.20732 4.35045,-0.57692 c 6.57168,-0.87149 11.07797,-2.04405 23.941368,-6.22965 6.45907,-2.10172 13.98577,-4.37229 16.72597,-5.04574 14.922166,-3.6673104 27.584546,-1.13529 34.608556,6.92046 l 2.2242,2.5509 0,2.76924 0,2.76924 -1.60088,-1.89877 c -3.34922,-3.97243 -8.24974,-7.3285 -13.16781,-9.01779 -2.03172,-0.69787 -3.77084,-0.85474 -9.4306,-0.85066 -8.390156,0.006 -10.187696,0.39829 -27.375096,5.97329 -15.462698,5.01556 -23.759598,7.05104 -28.741078,7.05104 l -1.53508,0 0,-2.20732 z"
             id="path3046"
             inkscape:connector-curvature="0"
             transform="matrix(0.69851093,0,0,0.58332223,10.813875,72.813911)" />
          <path
             style="fill:#000000;filter:url(#filter4221-1)"
             d="m 203.46974,29.151227 c -5.68644,-0.99847 -10.34522,-2.28766 -21.37985,-5.91631 -15.35724,-5.05011 -20.18741,-6.21161 -27.02032,-6.4975 -4.3193,-0.18074 -6.48468,-0.0606 -8.96927,0.49744 -6.161,1.38387 -12.10306,5.25587 -16.38659,10.67792 l -0.80073,1.01354 0,-2.91601 0,-2.91601 2.22421,-2.40366 c 4.06747,-4.39565 10.74761,-7.71941 17.17081,-8.54348 4.34905,-0.55797 12.16194,0.0855 17.76178,1.46284 2.72272,0.66968 10.2494,2.94075 16.72597,5.04682 12.88886,4.19124 17.39318,5.36281 23.9732,6.2354 l 4.35044,0.57692 0,2.20732 0,2.20732 -2.04626,-0.054 c -1.12545,-0.0297 -3.64696,-0.33505 -5.60339,-0.67857 l 0,0 z"
             id="path3048"
             inkscape:connector-curvature="0"
             transform="matrix(0.69851093,0,0,0.58332223,10.813875,72.813911)" />
          <path
             style="fill:#000000;filter:url(#filter4227-5)"
             d="m 43.591526,101.98201 -0.0878,-70.542703 4.45808,-0.56903 c 6.59608,-0.84192 11.23863,-2.03324 23.477848,-6.02462 17.83547,-5.81639 22.16632,-6.81443 30.071186,-6.92982 9.66152,-0.14102 16.51631,2.65862 21.97509,8.97509 1.82559,2.11243 1.86833,2.21975 1.86833,4.69127 l 0,2.52939 -1.45509,-1.69152 c -1.95235,-2.2696 -5.71639,-5.3139 -8.33139,-6.73831 -4.50132,-2.45191 -6.57304,-2.8748 -14.05694,-2.8694 -8.390156,0.006 -10.187696,0.39829 -27.375096,5.97329 -15.461488,5.01518 -23.759638,7.05104 -28.739898,7.05104 l -1.53392,0 -0.0913,68.344023 -0.0913,68.34401 -0.0878,-70.54271 z"
             id="path3052"
             inkscape:connector-curvature="0"
             transform="matrix(0.69851093,0,0,0.58332223,10.813875,72.813911)" />
          <path
             style="fill:#000000;filter:url(#filter4233-2)"
             d="m 128.99716,63.725527 -0.0843,-34.61673 1.60143,-1.87534 c 0.88078,-1.03143 1.60143,-1.77031 1.60143,-1.64195 0,0.12836 0.4783,-0.20486 1.06289,-0.74049 1.87391,-1.71696 6.85784,-4.49074 9.79121,-5.44924 9.04478,-2.95549 18.53208,-1.8889 36.83273,4.14081 16.51353,5.44091 19.83981,6.33624 27.13524,7.30398 l 4.18148,0.55468 0,2.21772 0,2.21772 -1.35713,0 c -4.71209,0 -13.89287,-2.23461 -27.3165,-6.64886 -15.35724,-5.05011 -20.18741,-6.21161 -27.02032,-6.4975 -10.3663,-0.43374 -16.75259,2.04669 -23.57651,9.15704 -1.2233,1.27466 -2.26151,2.3331 -2.30711,2.35209 -0.0457,0.019 -0.16794,14.45889 -0.27171,32.08866 l -0.18876,32.05415 -0.0843,-34.61674 z"
             id="path3054"
             inkscape:connector-curvature="0"
             transform="matrix(0.69851093,0,0,0.58332223,10.813875,72.813911)" />
          <path
             style="fill:#000000;filter:url(#filter4239-4)"
             d="m 125.45282,187.38405 c -7.49468,-9.06443 -16.073,-12.61263 -27.597216,-11.41491 -5.743,0.59686 -11.165,1.97032 -22.6229,5.73066 l -9.018358,2.95972 -10.91047,-0.064 c -8.55394,-0.0502 -10.15032,-0.14459 -7.39104,-0.43719 5.49845,-0.58292 12.16729,-2.32791 25.840008,-6.76138 15.93968,-5.16856 20.46897,-6.18162 27.758006,-6.20853 6.98674,-0.026 9.28337,0.52781 16.37011,3.94608 1.4747,0.71133 4.38618,3.43601 7.17078,6.71072 1.10207,1.29604 2.14143,2.35136 2.30973,2.34515 0.16835,-0.005 1.27872,-1.19109 2.46764,-2.63302 3.80985,-4.62066 9.30658,-7.98336 15.98779,-9.78076 1.17438,-0.31593 4.61743,-0.57923 7.65124,-0.5851 7.84539,-0.0156 12.56096,1.05828 30.07119,6.84572 10.28588,3.39966 16.05825,4.96649 20.8185,5.6509 6.02381,0.86606 7.11744,0.89948 7.11744,0.2174 0,-0.42907 0.49222,-0.61964 1.60037,-0.61964 l 1.60038,0 0.0912,-76.1286 0.0911,-76.128603 0.0879,77.044433 0.0879,77.04443 -12.29338,0 -12.29339,0 -9.68171,-3.1893 c -12.16501,-4.00737 -17.47761,-5.36049 -23.45899,-5.97506 -11.4353,-1.17494 -19.687,2.21903 -27.22309,11.19696 l -2.43028,2.89525 -2.20034,-2.66123 0,0 z"
             id="path3056"
             inkscape:connector-curvature="0"
             transform="matrix(0.69851093,0,0,0.58332223,10.813875,72.813911)" />
          <path
             style="fill:#000000;filter:url(#filter4245-4)"
             d="m 40.276086,184.15074 c 0,-0.25199 0.44039,-0.46073 0.97865,-0.46416 0.53825,-0.003 1.33897,-0.13054 1.77936,-0.28238 0.58866,-0.2031 0.80071,-0.0801 0.80071,0.46418 0,0.58305 -0.3779,0.74027 -1.77936,0.74027 -0.97865,0 -1.77936,-0.20595 -1.77936,-0.45791 z"
             id="path3078"
             inkscape:connector-curvature="0"
             transform="matrix(0.69851093,0,0,0.58332223,10.813875,72.813911)" />
          <path
             transform="matrix(0.79829822,0,0,0.77776235,0.07940498,62.31795)"
             style="fill:#000000;fill-opacity:1;stroke:#ffffff;stroke-width:0.44576284;stroke-linecap:butt;stroke-linejoin:round;stroke-miterlimit:4;stroke-opacity:1;stroke-dasharray:none;filter:url(#filter5261)"
             d="m 121.81222,167.3475 c -2.46426,-0.70428 -5.57197,-2.36777 -8.39773,-4.49513 l -2.58631,-1.9471 -20.861549,-0.26498 C 78.492782,160.49455 62.000816,160.30028 53.31782,160.20857 l -15.787265,-0.16672 0.161737,-57.92505 c 0.08896,-31.85878 0.233153,-62.379567 0.320439,-67.823975 l 0.158702,-9.898924 13.875635,0 c 7.631599,0 14.415653,0.07402 15.075676,0.164484 l 1.200041,0.164484 -1.103027,0.332052 c -3.123903,0.940411 -11.452624,2.219551 -16.107055,2.473751 -1.677837,0.09163 -3.050612,0.272979 -3.050612,0.402988 0,0.277828 7.695327,0.01816 8.840548,-0.298307 0.410899,-0.113548 1.380658,-0.272238 2.155021,-0.352645 2.22483,-0.231018 7.525292,-1.490224 16.466229,-3.911807 16.600207,-4.496034 19.44263,-5.039859 26.453091,-5.061119 3.84561,-0.01166 5.43803,0.08376 6.98796,0.418728 5.49551,1.18769 9.44461,3.210654 14.11558,7.230836 l 1.70749,1.469594 0.71775,-0.582659 c 0.39476,-0.320462 1.31513,-1.105858 2.04526,-1.745324 3.06694,-2.686113 7.35796,-4.902097 11.88654,-6.138495 2.21883,-0.605788 2.74678,-0.65084 7.61377,-0.649715 7.80238,0.0018 9.0391,0.235105 27.39325,5.167572 11.84997,3.184544 15.57828,3.977665 20.66945,4.397004 1.64359,0.135376 3.68875,0.247912 4.54479,0.250079 l 1.55643,0.0039 0,59.182943 0,59.182945 -3.07171,-0.15568 c -5.94205,-0.30116 -12.58702,-1.62615 -25.15466,-5.01579 -14.194,-3.82829 -17.01402,-4.4398 -22.55523,-4.89097 -9.79313,-0.79737 -16.98751,1.78572 -23.53631,8.45055 l -1.97483,2.00983 -2.51709,-2.4244 c -9.22343,-8.88375 -18.78068,-10.23532 -37.611474,-5.31894 -2.054493,0.53639 -6.70512,1.77056 -10.334725,2.74262 -11.015268,2.95001 -17.0963,4.12914 -22.905969,4.44152 L 48.56015,146.49487 48.52543,98.082613 C 48.496171,57.295319 48.292773,24.28676 48.110105,30.681897 l -0.04801,1.680949 -1.332633,0 -1.332633,0 -0.159722,8.155717 c -0.08785,4.485644 -0.233551,31.372571 -0.323786,59.748727 l -0.164062,51.59301 0.847072,0.1304 c 0.465889,0.0717 6.22611,0.19252 12.800489,0.26844 6.57438,0.0759 21.641468,0.26068 33.482419,0.41056 l 21.529001,0.27251 1.50623,1.36742 c 2.01353,1.82795 5.47951,4.12662 7.27249,4.82317 2.17061,0.84325 4.72498,0.8065 6.67727,-0.0961 1.86743,-0.86334 3.5803,-2.15198 5.89589,-4.43563 l 1.81316,-1.78816 34.31322,-0.1191 34.31322,-0.1191 0,-59.954784 c 0,-54.441194 -0.0362,-59.968685 -0.39391,-60.105942 -0.21665,-0.08314 -1.00109,-0.151158 -1.74321,-0.151158 l -1.34929,0 0,-2.333822 0,-2.333822 -3.29964,-0.172505 c -3.99645,-0.208934 -8.51044,-0.855408 -13.50985,-1.934824 -3.54946,-0.766357 -3.67965,-0.81524 -2.61481,-0.981784 0.61634,-0.0964 7.64832,-0.183577 15.6266,-0.193729 l 14.50597,-0.01846 0,68.234091 0,68.234089 -36.68845,0 -36.68844,0 -0.60373,0.65761 c -1.29479,1.41034 -4.34734,3.62581 -6.28797,4.56368 -3.62613,1.75243 -7.13242,2.18106 -10.34077,1.26413 l 0,0 z M 56.555293,142.55837 c 5.052161,-0.5954 7.506529,-1.1574 22.257831,-5.09663 16.166289,-4.31708 21.555586,-5.10473 28.144446,-4.11332 5.82431,0.87637 10.1589,2.78067 15.10213,6.63477 0.49909,0.38912 0.97536,0.7075 1.05837,0.7075 0.083,0 0.15094,-24.80777 0.15094,-55.128381 l 0,-55.128381 -1.83609,-1.744107 c -2.98761,-2.837932 -6.07913,-4.704541 -10.24184,-6.183841 -1.94296,-0.69047 -2.14255,-0.710325 -8.06928,-0.802774 -8.439055,-0.131638 -9.143274,-0.01231 -24.678107,4.181636 -13.972322,3.772114 -19.990034,5.086144 -24.71618,5.397035 l -2.428038,0.159719 0,55.884953 0,55.884951 1.058375,-0.1416 c 0.582107,-0.0779 2.470956,-0.30807 4.197443,-0.51153 l 0,0 z m 141.508817,-2.40484 c 0.0895,-1.66509 0.16279,-26.8064 0.16279,-55.869566 l 0,-52.842117 -2.30353,-0.155488 c -4.7258,-0.318993 -11.38273,-1.771241 -24.59166,-5.364814 -14.2611,-3.879821 -16.72964,-4.326984 -24.03135,-4.353134 -4.89846,-0.01754 -5.38131,0.02258 -7.62501,0.633665 -4.54249,1.237168 -8.30043,3.366476 -11.77348,6.671047 l -1.96643,1.871031 0.17663,54.905926 c 0.0971,30.19826 0.21767,54.94697 0.26784,54.99714 0.0502,0.0502 1.19177,-0.69141 2.53689,-1.64796 4.01977,-2.85855 8.89687,-5.00148 12.64713,-5.55696 2.11304,-0.31299 10.07658,-0.29076 12.46023,0.0348 3.08852,0.42179 8.79188,1.77218 17.23047,4.07967 14.546,3.97755 18.38476,4.79217 26.37368,5.59675 0.17663,0.0178 0.33049,-1.04136 0.4358,-2.99996 l 0,0 z"
             id="path5201"
             inkscape:connector-curvature="0" />
          <path
             transform="matrix(0.79829822,0,0,0.77776235,0.07940498,62.31795)"
             style="fill:#000000;fill-opacity:1;stroke:#ffffff;stroke-width:0.49805906;stroke-linecap:butt;stroke-linejoin:round;stroke-miterlimit:4;stroke-opacity:1;stroke-dasharray:none;filter:url(#filter5255)"
             d="m 122.98557,149.48148 c -9.31847,-9.45794 -19.42687,-10.93143 -38.938712,-5.67605 -20.471005,5.51372 -25.5563,6.61092 -32.436096,6.99839 l -3.050612,0.17181 0,-2.28721 0,-2.2872 1.307405,0.1727 c 0.719073,0.095 1.434182,0.34515 1.589132,0.55592 0.247768,0.33703 0.653007,0.34794 3.361898,0.0905 5.756843,-0.54705 8.991549,-1.27138 25.866374,-5.79209 12.099077,-3.2413 17.481734,-4.15089 23.035231,-3.89263 7.83178,0.36422 13.06682,2.49877 18.66128,7.60901 1.21676,1.11145 2.33446,2.01934 2.48378,2.01754 0.14931,-0.002 1.33608,-0.97184 2.63726,-2.15566 1.30118,-1.18382 3.17371,-2.68286 4.16118,-3.33121 4.84534,-3.1813 10.85794,-4.43111 19.05067,-3.95996 5.27659,0.30344 8.41357,0.97672 22.36055,4.7992 12.4422,3.41006 16.84098,4.33864 22.73317,4.79896 1.80715,0.14119 2.24082,0.10479 2.49029,-0.209 0.16614,-0.20897 0.8904,-0.4527 1.60948,-0.54163 l 1.3074,-0.16167 0,2.2872 0,2.28721 -3.05061,-0.17071 c -6.07518,-0.33995 -11.94106,-1.48322 -23.34253,-4.54948 -15.45548,-4.15654 -18.71854,-4.87197 -24.46643,-5.36425 -9.59913,-0.82214 -16.72344,1.73769 -23.51015,8.44739 l -2.02665,2.00365 -1.83331,-1.86075 0,0 z"
             id="path5207"
             inkscape:connector-curvature="0" />
          <path
             transform="matrix(0.79829822,0,0,0.77776235,0.07940498,62.31795)"
             style="fill:#000000;fill-opacity:1;stroke:#ffffff;stroke-width:0.49805906;stroke-linecap:butt;stroke-linejoin:round;stroke-miterlimit:4;stroke-opacity:1;stroke-dasharray:none;filter:url(#filter5249)"
             d="m 123.13924,153.85619 c -8.84035,-8.92724 -18.5466,-10.67417 -35.605969,-6.40838 -1.643595,0.41099 -5.995582,1.58019 -9.671085,2.59823 l -6.682731,1.85098 -6.14229,-0.0144 c -3.378259,-0.008 -6.590543,-0.10707 -7.138408,-0.22039 -0.927788,-0.19191 -0.942949,-0.20801 -0.221018,-0.23468 2.021351,-0.0747 9.295165,-1.76949 19.894351,-4.6354 13.314197,-3.60002 16.207683,-4.21396 21.790084,-4.62347 5.195436,-0.38112 9.224006,0.0159 13.012576,1.28236 4.74975,1.58779 5.83569,2.24578 9.62361,5.83122 1.37461,1.30112 2.64872,2.36568 2.83135,2.36568 0.18264,0 1.32147,-0.90822 2.53074,-2.01828 3.64752,-3.34825 7.33741,-5.42001 11.97096,-6.72132 2.49737,-0.70137 7.42255,-1.00424 11.79053,-0.72506 5.25247,0.33572 8.64387,1.0464 20.20977,4.23505 13.52089,3.72762 17.67247,4.6456 23.74689,5.25083 2.94246,0.29318 3.22097,0.28506 3.43653,-0.10012 0.12902,-0.23054 0.48115,-0.43895 0.78252,-0.46313 0.30136,-0.0242 -0.18047,-0.12223 -1.07075,-0.21786 -1.50949,-0.16216 -1.47169,-0.1697 0.56031,-0.11181 l 2.17901,0.0621 0,-2.08548 c 0,-2.04363 -0.0122,-2.08549 -0.60636,-2.08549 -0.3335,0 -0.90936,0.1152 -1.27969,0.256 -0.37032,0.14079 -0.72935,0.19996 -0.79783,0.13148 -0.18331,-0.18331 0.91179,-0.54507 2.12357,-0.70151 l 1.05837,-0.13664 0,2.96466 0,2.96466 -10.74482,0 -10.74483,0 -7.12304,-1.97892 c -8.70651,-2.41883 -12.27407,-3.31468 -15.83908,-3.97735 -9.44168,-1.75504 -16.19539,-1.19111 -22.15514,1.84991 -2.82921,1.44365 -4.39524,2.61584 -7.36011,5.50919 l -2.37103,2.31382 -1.98699,-2.00651 0,0 z"
             id="path5209"
             inkscape:connector-curvature="0" />
          <path
             transform="matrix(0.79829822,0,0,0.77776235,0.07940498,62.31795)"
             style="fill:#000000;fill-opacity:1;stroke:#ffffff;stroke-width:0.49805906;stroke-linecap:butt;stroke-linejoin:round;stroke-miterlimit:4;stroke-opacity:1;stroke-dasharray:none;filter:url(#filter5243)"
             d="m 51.548504,34.318523 0,-1.602198 3.673186,-0.43428 c 5.246592,-0.620305 9.736765,-1.591509 19.237531,-4.160993 18.376038,-4.969803 20.111635,-5.308289 27.268729,-5.318107 4.519,-0.0062 5.58232,0.0694 7.82514,0.556333 5.01433,1.088649 8.31724,2.732318 11.51388,5.729797 l 1.95301,1.831334 0,1.882708 0,1.882707 -1.68095,-1.614376 c -2.77826,-2.668225 -6.01519,-4.609844 -10.14795,-6.087066 -1.94966,-0.696888 -2.1219,-0.713975 -8.05864,-0.799424 -8.526665,-0.122726 -9.526352,0.04289 -23.917507,3.962312 -13.584215,3.699653 -20.584651,5.245818 -25.362906,5.601825 l -2.303523,0.171626 0,-1.602198 z"
             id="path5211"
             inkscape:connector-curvature="0" />
          <path
             transform="matrix(0.79829822,0,0,0.77776235,0.07940498,62.31795)"
             style="fill:#000000;fill-opacity:1;stroke:#ffffff;stroke-width:0.49805906;stroke-linecap:butt;stroke-linejoin:round;stroke-miterlimit:4;stroke-opacity:1;stroke-dasharray:none;filter:url(#filter5237)"
             d="m 51.607922,49.033209 -0.05942,-11.843517 3.797701,-0.434838 c 5.521208,-0.63218 9.840993,-1.573533 20.619777,-4.49339 17.477467,-4.73446 18.941606,-5.008667 26.63358,-4.987998 5.49183,0.01476 5.99969,0.05553 8.24758,0.662204 4.37343,1.180324 7.82185,3.128371 10.66663,6.025692 1.32845,1.352978 1.35991,1.418414 1.4634,3.043714 l 0.10577,1.66101 -1.82393,-1.569806 c -3.93704,-3.388504 -8.19799,-5.577607 -12.18221,-6.258725 -1.94074,-0.331777 -11.963173,-0.303263 -14.19716,0.04039 -2.705168,0.416135 -7.053863,1.474517 -15.41568,3.751854 -13.594097,3.702345 -20.517345,5.229212 -25.360169,5.59298 l -2.300787,0.172823 -0.06783,10.240562 -0.06783,10.240561 -0.05942,-11.843518 z"
             id="path5213"
             inkscape:connector-curvature="0" />
          <path
             transform="matrix(0.79829822,0,0,0.77776235,0.07940498,62.31795)"
             style="fill:#000000;fill-opacity:1;stroke:#ffffff;stroke-width:0.49805906;stroke-linecap:butt;stroke-linejoin:round;stroke-miterlimit:4;stroke-opacity:1;stroke-dasharray:none;filter:url(#filter5231)"
             d="m 193.45472,35.457577 c -4.3586,-0.501374 -8.24351,-1.356889 -17.54786,-3.864302 -19.36551,-5.218777 -20.89865,-5.517774 -28.48199,-5.554647 -4.78868,-0.02329 -5.57028,0.03204 -7.40081,0.523822 -4.58566,1.231974 -8.64411,3.462681 -11.81975,6.496677 l -1.94695,1.860098 0,-1.992222 0,-1.992222 1.92998,-1.675345 c 3.26249,-2.832053 6.66146,-4.573124 11.51762,-5.899729 1.90409,-0.520161 2.64213,-0.5779 7.34637,-0.574728 7.83813,0.0053 9.96211,0.415119 29.63451,5.718158 8.20546,2.211923 12.59302,3.149501 17.61884,3.764971 l 3.67319,0.449825 0,1.565663 0,1.565663 -0.80935,-0.02879 c -0.44514,-0.01583 -2.11635,-0.179137 -3.7138,-0.362893 l 0,0 z"
             id="path5215"
             inkscape:connector-curvature="0" />
          <path
             transform="matrix(0.79829822,0,0,0.77776235,0.07940498,62.31795)"
             style="fill:#000000;fill-opacity:1;stroke:#ffffff;stroke-width:0.49805906;stroke-linecap:butt;stroke-linejoin:round;stroke-miterlimit:4;stroke-opacity:1;stroke-dasharray:none;filter:url(#filter5225)"
             d="m 126.44414,42.100725 c -0.10273,-0.876131 -0.18678,-2.737856 -0.18678,-4.137167 l 0,-2.544202 1.22797,-1.148621 c 3.04217,-2.845594 8.48842,-5.550329 13.34026,-6.625086 2.09941,-0.465051 6.82811,-0.702583 9.71215,-0.48786 5.29217,0.394012 10.7393,1.533865 21.33313,4.464114 12.84965,3.554209 17.61402,4.592683 24.55056,5.351208 l 1.55644,0.170199 0,1.623498 0,1.623499 -1.92998,-0.16676 c -4.86508,-0.420366 -10.60345,-1.668746 -22.97298,-4.997759 -14.74089,-3.967222 -17.38954,-4.509081 -23.28426,-4.763486 -6.48534,-0.279896 -10.60514,0.43437 -14.94177,2.590512 -2.1826,1.085173 -3.29591,1.849627 -5.90133,4.052123 l -2.06761,1.747864 -0.12452,2.420444 -0.12451,2.420445 -0.18677,-1.592965 z"
             id="path5217"
             inkscape:connector-curvature="0" />
        </g>
        <g
           clip-path="url(#clipPath)"
           id="g3336">
          <g
             id="g3338">
            <path
               inkscape:connector-curvature="0"
               d="M237.98077 6.9981169C237.98077 -7.9315858 225.86187 -19.98076 210.99912 -19.98076M210.99912 -19.98076L39.001093 -19.98076M39.001093 -19.98076C24.069606 -19.98076 12.019231 -7.9315858 12.019231 6.9981169"
               style="fill:none;stroke:#ffffff;stroke-opacity:1;stroke-width:10;filter:url(#filter);"
               id="path3340"
               transform="matrix(0.8,0,0,0.79999995,0,43.600003)" />
            <path
               inkscape:connector-curvature="0"
               d="M237.98077 178.95594L237.98077 6.9981169M12.019231 6.9981169L12.019231 178.95594"
               style="fill:none;stroke:#808080;stroke-opacity:1;stroke-width:10;filter:url(#filter);"
               id="path3342"
               transform="matrix(0.8,0,0,0.79999995,0,43.600003)" />
            <path
               inkscape:connector-curvature="0"
               d="M210.99912 205.98077C225.86187 205.98077 237.98077 193.8859 237.98077 178.95594M12.019231 6.9981169L12.019231 178.95594M12.019231 178.95594C12.019231 193.8859 24.069606 205.98077 39.001093 205.98077M39.001093 205.98077L210.99912 205.98077"
               style="fill:none;stroke:#000000;stroke-opacity:1;stroke-width:10;filter:url(#filter);"
               id="path3344"
               transform="matrix(0.8,0,0,0.79999995,0,43.600003)" />
          </g>
        </g>
      </g>
    </g>
    <path
       inkscape:connector-curvature="0"
       id="path5219"
       d=""
       style="fill:#000000;fill-opacity:1;stroke:#ffffff;stroke-width:0.49805906;stroke-linecap:butt;stroke-linejoin:round;stroke-miterlimit:4;stroke-opacity:1;stroke-dasharray:none" />
    <path
       inkscape:connector-curvature="0"
       id="path5221"
       d=""
       style="fill:#000000;fill-opacity:1;stroke:#ffffff;stroke-width:0.49805906;stroke-linecap:butt;stroke-linejoin:round;stroke-miterlimit:4;stroke-opacity:1;stroke-dasharray:none" />
    <path
       inkscape:connector-curvature="0"
       id="path5223"
       d=""
       style="fill:#000000;fill-opacity:1;stroke:#ffffff;stroke-width:0.49805906;stroke-linecap:butt;stroke-linejoin:round;stroke-miterlimit:4;stroke-opacity:1;stroke-dasharray:none" />
    <g
       id="g3727"
       clip-path="url(#clipPatho)">
      <g
         id="g3729">
        <path
           id="path3731"
           style="fill:none;stroke:#ffffff;stroke-opacity:1;stroke-width:10;filter:url(#filtere);"
           d="M250.0 -2.1510431C250.0 -18.669014 236.59186 -32.000014 220.14796 -32.000014M220.14796 -32.000014L29.85227 -32.000014M29.85227 -32.000014C13.33233 -32.000014 0.0 -18.669014 0.0 -2.1510431"
           inkscape:connector-curvature="0"
           transform="matrix(0.8,0,0,0.79999995,0,43.600003)" />
        <path
           id="path3733"
           style="fill:none;stroke:#808080;stroke-opacity:1;stroke-width:10;filter:url(#filtere);"
           d="M250.0 188.10017L250.0 -2.1510431M0.0 -2.1510431L0.0 188.10017"
           inkscape:connector-curvature="0"
           transform="matrix(0.8,0,0,0.79999995,0,43.600003)" />
        <path
           id="path3735"
           style="fill:none;stroke:#000000;stroke-opacity:1;stroke-width:10;filter:url(#filtere);"
           d="M220.14796 218.0C236.59186 218.0 250.0 204.61843 250.0 188.10017M0.0 -2.1510431L0.0 188.10017M0.0 188.10017C0.0 204.61843 13.33233 218.0 29.85227 218.0M29.85227 218.0L220.14796 218.0"
           inkscape:connector-curvature="0"
           transform="matrix(0.8,0,0,0.79999995,0,43.600003)" />
      </g>
    </g>
  </g>
</svg>
