<?xml version="1.0" encoding="UTF-8" standalone="no"?>
<!-- Created with Inkscape (http://www.inkscape.org/) -->

<svg
   xmlns:dc="http://purl.org/dc/elements/1.1/"
   xmlns:cc="http://creativecommons.org/ns#"
   xmlns:rdf="http://www.w3.org/1999/02/22-rdf-syntax-ns#"
   xmlns:svg="http://www.w3.org/2000/svg"
   xmlns="http://www.w3.org/2000/svg"
   xmlns:sodipodi="http://sodipodi.sourceforge.net/DTD/sodipodi-0.dtd"
   xmlns:inkscape="http://www.inkscape.org/namespaces/inkscape"
   viewBox="0 0 200 200"
   width="100%"
   height="100%"
   id="svg12385"
   sodipodi:version="0.32"
   inkscape:version="0.48.2 r9819"
   sodipodi:docname="explore.svg"
   inkscape:output_extension="org.inkscape.output.svg.inkscape"
   version="1.1">
  <sodipodi:namedview
     id="base"
     pagecolor="#ffffff"
     bordercolor="#666666"
     borderopacity="1.0"
     gridtolerance="10000"
     guidetolerance="10"
     objecttolerance="10"
     inkscape:pageopacity="0.0"
     inkscape:pageshadow="2"
     inkscape:zoom="1.979899"
     inkscape:cx="107.1123"
     inkscape:cy="113.8292"
     inkscape:document-units="px"
     inkscape:current-layer="layer4"
     showgrid="false"
     inkscape:window-width="1360"
     inkscape:window-height="706"
     inkscape:window-x="-8"
     inkscape:window-y="-8"
     inkscape:window-maximized="1"
     fit-margin-top="0"
     fit-margin-left="0"
     fit-margin-right="0"
     fit-margin-bottom="0" />
  <defs
     id="defs12387">
    <inkscape:perspective
       id="perspective12393"
       inkscape:persp3d-origin="372.04724 : 350.78739 : 1"
       inkscape:vp_z="744.09448 : 526.18109 : 1"
       inkscape:vp_y="0 : 1000 : 0"
       inkscape:vp_x="0 : 526.18109 : 1"
       sodipodi:type="inkscape:persp3d" />
    <clipPath
       id="clipPath">
      <path
         id="path4826"
         style="fill:#59e817;fill-opacity:1;fill-rule:nonzero;stroke:#ffffff;stroke-width:9.03846169;stroke-miterlimit:4;stroke-opacity:1;stroke-dasharray:none;display:inline"
         d="m 210.99912,205.98077 c 14.86275,0 26.98165,-12.09487 26.98165,-27.02483 l 0,-171.9578231 c 0,-14.9297027 -12.1189,-26.9788769 -26.98165,-26.9788769 l -171.998027,0 c -14.931487,0 -26.981862,12.0491742 -26.981862,26.9788769 l 0,171.9578231 c 0,14.92996 12.050375,27.02483 26.981862,27.02483 l 171.998027,0 z"
         inkscape:connector-curvature="0" />
    </clipPath>
    <filter
       id="filter"
       height="2.0"
       width="2.0"
       x="-0.5"
       y="-0.5">
      <feGaussianBlur
         stdDeviation="5.0"
         id="feGaussianBlur6970" />
    </filter>
    <clipPath
       id="clipPathf">
      <path
         inkscape:connector-curvature="0"
         d="M 220.14796,218 C 236.59186,218 250,204.61843 250,188.10017 L 250,-2.1510431 C 250,-18.669014 236.59186,-32.000014 220.14796,-32.000014 l -190.29569,0 C 13.33233,-32.000014 0,-18.669014 0,-2.1510431 L 0,188.10017 C 0,204.61843 13.33233,218 29.85227,218 l 190.29569,0 z"
         style="fill:#59e817;fill-opacity:1;fill-rule:nonzero;stroke:none;display:inline"
         id="path4010-7" />
    </clipPath>
    <filter
       y="-0.5"
       x="-0.5"
       width="2.0"
       height="2.0"
       id="filterB">
      <feGaussianBlur
         id="feGaussianBlur7043"
         stdDeviation="5.0" />
    </filter>
  </defs>
  <metadata
     id="metadata12390">
    <rdf:RDF>
      <cc:Work
         rdf:about="">
        <dc:format>image/svg+xml</dc:format>
        <dc:type
           rdf:resource="http://purl.org/dc/dcmitype/StillImage" />
        <dc:title>Other map symbols</dc:title>
        <dc:creator>
          <cc:Agent>
            <dc:title>Mohamed Ibrahim</dc:title>
          </cc:Agent>
        </dc:creator>
        <dc:rights>
          <cc:Agent>
            <dc:title>Public Domain</dc:title>
          </cc:Agent>
        </dc:rights>
        <dc:publisher>
          <cc:Agent>
            <dc:title>clker.com</dc:title>
          </cc:Agent>
        </dc:publisher>
        <dc:subject>
          <rdf:Bag>
            <rdf:li>other map symbols</rdf:li>
          </rdf:Bag>
        </dc:subject>
        <cc:license
           rdf:resource="http://creativecommons.org/licenses/publicdomain/" />
      </cc:Work>
      <cc:License
         rdf:about="http://creativecommons.org/licenses/publicdomain/">
        <cc:permits
           rdf:resource="http://creativecommons.org/ns#Reproduction" />
        <cc:permits
           rdf:resource="http://creativecommons.org/ns#Distribution" />
        <cc:permits
           rdf:resource="http://creativecommons.org/ns#DerivativeWorks" />
      </cc:License>
    </rdf:RDF>
  </metadata>
  <g
     id="layer1"
     inkscape:groupmode="layer"
     inkscape:label="Layer 1"
     transform="translate(0,-852.36216)" />
  <g
     inkscape:label="Bottom"
     id="layer3"
     inkscape:groupmode="layer"
     transform="translate(0,-852.36216)" />
  <g
     inkscape:label="Top"
     id="layer4"
     inkscape:groupmode="layer"
     transform="translate(0,-852.36216)">
    <g
       id="g3017"
       transform="matrix(0.8,0,0,0.66666668,0,350.78737)">
      <g
         id="g2998">
        <g
           id="g4828"
           transform="matrix(1,0,0,1.1999999,0,790.76219)">
          <path
             inkscape:connector-curvature="0"
             d="M 220.14796,218 C 236.59186,218 250,204.61843 250,188.10017 L 250,-2.1510431 C 250,-18.669014 236.59186,-32.000014 220.14796,-32.000014 l -190.29569,0 C 13.33233,-32.000014 0,-18.669014 0,-2.1510431 L 0,188.10017 C 0,204.61843 13.33233,218 29.85227,218 l 190.29569,0 z"
             style="fill:#59e817;fill-opacity:1;fill-rule:nonzero;stroke:none;display:inline"
             id="path7052" />
          <path
             id="path6980"
             style="fill:#59e817;fill-opacity:1;fill-rule:nonzero;stroke:#ffffff;stroke-width:9.03846169;stroke-miterlimit:4;stroke-opacity:1;stroke-dasharray:none;display:inline"
             d="m 210.99912,205.98077 c 14.86275,0 26.98165,-12.09487 26.98165,-27.02483 l 0,-171.9578231 c 0,-14.9297027 -12.1189,-26.9788769 -26.98165,-26.9788769 l -171.998027,0 c -14.931487,0 -26.981862,12.0491742 -26.981862,26.9788769 l 0,171.9578231 c 0,14.92996 12.050375,27.02483 26.981862,27.02483 l 171.998027,0 z"
             inkscape:connector-curvature="0" />
          <g
             clip-path="url(#clipPath)"
             id="g6982">
            <g
               id="g6984">
              <path
                 id="path6986"
                 style="fill:none;stroke:#ffffff;stroke-opacity:1;stroke-width:10;filter:url(#filter);"
                 d="M237.98077 6.9981169C237.98077 -7.9315858 225.86187 -19.98076 210.99912 -19.98076M210.99912 -19.98076L39.001093 -19.98076M39.001093 -19.98076C24.069606 -19.98076 12.019231 -7.9315858 12.019231 6.9981169"
                 inkscape:connector-curvature="0" />
              <path
                 id="path6988"
                 style="fill:none;stroke:#808080;stroke-opacity:1;stroke-width:10;filter:url(#filter);"
                 d="M237.98077 178.95594L237.98077 6.9981169M12.019231 6.9981169L12.019231 178.95594"
                 inkscape:connector-curvature="0" />
              <path
                 id="path6990"
                 style="fill:none;stroke:#000000;stroke-opacity:1;stroke-width:10;filter:url(#filter);"
                 d="M210.99912 205.98077C225.86187 205.98077 237.98077 193.8859 237.98077 178.95594M12.019231 6.9981169L12.019231 178.95594M12.019231 178.95594C12.019231 193.8859 24.069606 205.98077 39.001093 205.98077M39.001093 205.98077L210.99912 205.98077"
                 inkscape:connector-curvature="0" />
            </g>
          </g>
          <g
             id="g7060"
             clip-path="url(#clipPathf)">
            <g
               id="g7062">
              <path
                 inkscape:connector-curvature="0"
                 d="M250.0 -2.1510431C250.0 -18.669014 236.59186 -32.000014 220.14796 -32.000014M220.14796 -32.000014L29.85227 -32.000014M29.85227 -32.000014C13.33233 -32.000014 0.0 -18.669014 0.0 -2.1510431"
                 style="fill:none;stroke:#ffffff;stroke-opacity:1;stroke-width:10;filter:url(#filterB);"
                 id="path7064" />
              <path
                 inkscape:connector-curvature="0"
                 d="M250.0 188.10017L250.0 -2.1510431M0.0 -2.1510431L0.0 188.10017"
                 style="fill:none;stroke:#808080;stroke-opacity:1;stroke-width:10;filter:url(#filterB);"
                 id="path7066" />
              <path
                 inkscape:connector-curvature="0"
                 d="M220.14796 218.0C236.59186 218.0 250.0 204.61843 250.0 188.10017M0.0 -2.1510431L0.0 188.10017M0.0 188.10017C0.0 204.61843 13.33233 218.0 29.85227 218.0M29.85227 218.0L220.14796 218.0"
                 style="fill:none;stroke:#000000;stroke-opacity:1;stroke-width:10;filter:url(#filterB);"
                 id="path7068" />
            </g>
          </g>
        </g>
        <g
           transform="scale(0.93323183,1.0715451)"
           style="font-size:38.4817276px;font-style:normal;font-variant:normal;font-weight:bold;font-stretch:normal;text-align:start;line-height:125%;letter-spacing:0px;word-spacing:0px;writing-mode:lr-tb;text-anchor:start;fill:#ffffff;fill-opacity:1;stroke:none;font-family:Raavi;-inkscape-font-specification:Raavi Bold"
           id="text3881">
          <path
             d="m 123.19485,737.10553 -6.89589,24.80267 -4.13378,0 -5.0357,-18.16984 -5.0169,18.16984 -4.13378,0 -6.877106,-24.80267 4.866586,0 4.11499,16.68543 4.60353,-16.68543 4.92295,0 4.58474,16.66664 4.13378,-16.66664 z"
             id="path2996"
             inkscape:connector-curvature="0" />
          <path
             d="m 136.89269,753.92249 -1.2965,0 c -3.75799,10e-6 -5.63698,0.91445 -5.63697,2.74333 -10e-6,0.60128 0.24426,1.07103 0.73281,1.40924 0.48853,0.33822 1.14617,0.50733 1.97294,0.50733 0.82674,0 1.62218,-0.16597 2.38631,-0.49793 0.76411,-0.33195 1.37792,-0.81736 1.84141,-1.45622 z m -10.95451,-4.65989 c 0.52611,-3.8206 3.1567,-5.73091 7.89176,-5.73092 1.15244,10e-6 2.18901,0.10336 3.10973,0.31003 0.92069,0.20671 1.7036,0.57311 2.34874,1.09921 0.6451,0.52613 1.1399,1.24015 1.4844,2.14205 0.34446,0.90193 0.51671,2.04811 0.51672,3.43855 l 0,11.38668 -4.39684,0 0,-0.93949 c -0.72655,0.43843 -1.51259,0.77665 -2.35813,1.01465 -0.84555,0.23801 -1.7506,0.35701 -2.71514,0.35701 -0.90192,0 -1.7412,-0.13466 -2.51785,-0.40398 -0.77665,-0.26932 -1.44996,-0.64825 -2.01991,-1.13679 -0.56997,-0.48854 -1.01779,-1.07102 -1.34348,-1.74746 -0.32569,-0.67644 -0.48854,-1.42177 -0.48854,-2.236 0,-4.34672 3.57634,-6.52009 10.72904,-6.5201 l 0.71401,0 c -0.0125,-0.48852 -0.0532,-0.91756 -0.12213,-1.28711 -0.0689,-0.36952 -0.2161,-0.68268 -0.44156,-0.93949 -0.22549,-0.25678 -0.55119,-0.45095 -0.97708,-0.58249 -0.42591,-0.13151 -0.99587,-0.19728 -1.70988,-0.19729 -0.8894,10e-6 -1.59402,0.1378 -2.11386,0.41337 -0.51986,0.2756 -0.87374,0.79546 -1.06163,1.55957 l -4.52837,0 z"
             id="path2998"
             inkscape:connector-curvature="0" />
          <path
             d="m 150.79723,761.9082 -4.39684,0 0,-24.80267 4.39684,0 z"
             id="path3000"
             inkscape:connector-curvature="0" />
          <path
             d="m 171.65402,761.9082 -5.29875,0 -5.09207,-7.94813 -0.97707,0.95829 0,6.98984 -4.41563,0 0,-24.80267 4.41563,0 0,12.36376 5.33633,-5.50545 5.80608,0 -7.12137,6.95227 z"
             id="path3002"
             inkscape:connector-curvature="0" />
        </g>
      </g>
      <path
         d="m 152.25928,859.09883 c 0,8.67303 -5.84681,15.6918 -13.03228,15.6918 -4.40971,0 -8.34695,-2.67043 -10.6896,-6.68792 l 4.11441,0 c 2.73638,0 5.11841,-1.93783 6.24052,-4.70281 l 1.75208,-4.58466 c 0.11811,-0.25994 0.35435,-0.49628 0.66933,-0.49628 l 10.94554,0 0,0.77987 z"
         style="fill:#ffffff;fill-opacity:1;fill-rule:nonzero;stroke:none"
         id="path4012"
         inkscape:connector-curvature="0" />
      <path
         d="m 154.75942,854.30149 c -1.77176,-8.31855 -8.07134,-14.4393 -15.53242,-14.4393 -8.87847,0 -16.02457,8.62577 -16.02457,19.23664 0,1.74878 0.17718,3.47393 0.53153,5.03367 l 8.91785,0 c 1.41741,0 2.69701,-1.01619 3.26791,-2.43412 l 1.73239,-4.58466 c 0.61027,-1.65426 2.04736,-2.81223 3.66163,-2.81223 l 13.44568,0 z"
         style="fill:#ffffff;fill-opacity:1;fill-rule:nonzero;stroke:none"
         id="path4014"
         inkscape:connector-curvature="0" />
      <path
         d="m 108.59528,868.24451 c 1.61427,-1.58336 1.83082,-4.3956 0.53152,-6.28618 l -7.04767,-10.37454 c -1.29928,-1.93786 -3.64193,-2.22143 -5.21683,-0.66171 l -30.100215,29.37486 c -1.574895,1.55973 -1.830815,4.37196 -0.531522,6.30981 l 7.047647,10.39817 c 1.299305,1.89059 3.64196,2.15054 5.25623,0.63809 l 30.06084,-29.3985 z"
         style="fill:#ffffff;fill-opacity:1;fill-rule:nonzero;stroke:none"
         id="path4016"
         inkscape:connector-curvature="0" />
      <path
         d="m 78.88878,909.78997 c -1.693008,1.55972 -3.14979,3.54483 -4.27189,5.90805 -1.08276,2.24507 -1.732395,4.65555 -2.047372,7.04241 l -8.563508,44.35774 -23.643131,27.3425 c -0.669329,0.7326 -1.240225,1.5597 -1.653645,2.5286 -2.500144,5.22273 -1.003999,11.86343 3.386028,14.86473 3.484472,2.4104 7.795737,1.6541 10.610869,-1.4416 l 26.300774,-30.50923 c 0.374045,-0.5435 0.728385,-1.1343 1.02368,-1.796 0.393715,-0.8272 0.68901,-1.6543 0.885885,-2.5287 l 5.35465,-28.12235 17.57977,21.05635 -0.0393,35.49563 c 0,3.7811 1.65365,7.4205 4.58689,9.4529 4.33097,2.9539 9.88248,1.1579 12.38262,-4.0411 0.84651,-1.9142 1.22054,-3.8994 1.1418,-5.8845 l 0.0393,-39.44223 c 0.0788,-2.8358 -0.76777,-5.6008 -2.38204,-7.7277 l -18.9578,-22.47425 21.81231,-21.45808 5.01998,16.75526 c 0.4331,1.11072 1.08275,2.12691 1.88988,2.90677 l 20.84769,18.97667 c 2.79544,2.07964 6.5752,1.51247 8.91785,-1.48883 2.69701,-3.4503 2.53952,-8.90934 -0.35435,-12.12333 -0.0787,-0.0945 -0.17717,-0.18905 -0.25592,-0.28359 l -18.2688,-16.75525 -8.46506,-29.77662 c -1.33867,-3.92294 -3.7207,-7.32598 -7.02798,-9.59467 -5.61057,-3.82843 -12.34325,-3.2849 -17.34354,0.77985 l -28.50564,27.98057 z"
         style="fill:#ffffff;fill-opacity:1;fill-rule:nonzero;stroke:none"
         id="path4018"
         inkscape:connector-curvature="0" />
      <path
         d="m 159.72034,854.49055 c -0.57089,-0.66171 -0.96462,-1.63063 -0.96462,-2.64682 0,-2.00874 1.35835,-3.63936 3.01199,-3.63936 l 45.14046,0.0473 c 4.56721,0.0473 7.38233,15.55001 4.2916,27.74425 -2.87418,11.2962 -11.45737,25.90092 -15.49304,20.96179 l -35.98639,-42.46713 z"
         style="fill:#ffffff;fill-opacity:1;fill-rule:nonzero;stroke:none"
         id="path4020"
         inkscape:connector-curvature="0" />
    </g>
  </g>
</svg>
